# Blender 5.0.0
# www.blender.org
mtllib chest_lp.mtl
o coin2_lp
v -0.167399 0.398934 0.388723
v 0.170604 0.410495 0.389947
v -0.166819 0.399446 -0.383399
v 0.164075 0.402906 -0.389220
v -0.168952 0.399982 0.318142
v -0.102162 0.406879 0.322136
v -0.098693 0.399077 0.389268
v 0.115862 0.408285 0.390253
v 0.120343 0.427291 0.322727
v 0.172893 0.407828 0.318977
v -0.099204 0.400303 -0.385360
v -0.114545 0.413560 -0.317372
v -0.167717 0.400481 -0.315426
v 0.168023 0.405111 -0.335245
v 0.084693 0.427552 -0.350107
v 0.094473 0.407718 -0.397671
v 0.014854 0.429942 -0.333634
v 0.028316 0.407477 -0.390257
v -0.049907 0.416836 -0.317614
v -0.034295 0.400892 -0.384141
v -0.052943 0.437969 -0.237497
v -0.113829 0.418634 -0.245954
v 0.016302 0.440740 -0.245392
v 0.024116 0.449391 -0.184346
v -0.044889 0.454018 -0.177976
v 0.079898 0.441252 -0.282950
v 0.098270 0.432074 -0.193237
v 0.097137 0.448089 -0.127179
v 0.027454 0.455473 -0.129485
v 0.171507 0.404003 -0.259592
v 0.173542 0.408697 -0.181290
v 0.172369 0.412545 -0.113555
v 0.173370 0.410667 -0.044390
v 0.097545 0.455781 -0.061461
v 0.087910 0.458578 0.014522
v 0.025971 0.461614 0.015304
v 0.037817 0.473395 -0.052036
v 0.174790 0.410394 0.041088
v 0.171362 0.411002 0.113736
v 0.108278 0.426268 0.111195
v 0.118308 0.430690 0.183688
v 0.037849 0.438787 0.175715
v 0.033658 0.450034 0.099601
v 0.173856 0.410261 0.182576
v 0.171462 0.408699 0.249799
v 0.115875 0.424676 0.252556
v 0.051309 0.428912 0.326802
v 0.041606 0.425457 0.252697
v -0.033390 0.409100 0.323625
v -0.039722 0.422739 0.258452
v -0.038609 0.440477 0.177850
v -0.106166 0.419794 0.258965
v -0.103142 0.415222 0.183522
v -0.098650 0.421716 0.102922
v -0.031022 0.455351 0.095025
v -0.109518 0.446006 0.030934
v -0.037775 0.468883 0.021258
v -0.111095 0.437499 -0.044103
v -0.036882 0.474036 -0.048818
v -0.128122 0.434833 -0.114723
v -0.052383 0.471599 -0.118695
v -0.122223 0.433474 -0.185471
v -0.171891 0.403150 -0.107704
v -0.168247 0.400983 -0.176342
v -0.167300 0.400282 -0.244985
v -0.168163 0.400454 -0.035416
v -0.167998 0.402164 0.036149
v -0.166508 0.399409 0.107335
v -0.166415 0.401946 0.178256
v -0.167790 0.405265 0.249550
v -0.033627 0.399889 0.392615
v 0.042664 0.409363 0.392203
vn -0.0540 0.9964 0.0660
vn 0.1621 0.9790 0.1234
vn -0.1176 0.9861 -0.1177
vn 0.2010 0.9596 -0.1967
vn -0.1181 0.9876 0.1038
vn -0.0726 0.9883 0.1339
vn -0.0398 0.9945 0.0968
vn 0.0931 0.9738 0.2076
vn 0.1330 0.9877 0.0823
vn 0.2411 0.9694 0.0458
vn -0.0662 0.9823 -0.1754
vn -0.1519 0.9796 -0.1318
vn -0.2034 0.9763 -0.0735
vn 0.2801 0.9511 -0.1303
vn 0.1046 0.9687 -0.2251
vn 0.0919 0.9549 -0.2823
vn -0.1197 0.9577 -0.2616
vn -0.1137 0.9237 -0.3660
vn -0.1280 0.9671 -0.2197
vn -0.1280 0.9494 -0.2869
vn -0.1465 0.9680 -0.2038
vn -0.2862 0.9468 -0.1469
vn -0.0133 0.9911 -0.1324
vn 0.0964 0.9840 -0.1497
vn -0.1091 0.9729 -0.2039
vn 0.1616 0.9833 -0.0840
vn 0.2614 0.9619 -0.0804
vn 0.2980 0.9445 -0.1382
vn 0.1347 0.9745 -0.1796
vn 0.3417 0.9388 -0.0430
vn 0.3647 0.9278 -0.0782
vn 0.4346 0.8969 -0.0821
vn 0.4876 0.8730 -0.0119
vn 0.3412 0.9390 -0.0437
vn 0.2966 0.9486 0.1101
vn 0.1233 0.9820 0.1428
vn 0.1324 0.9908 -0.0276
vn 0.4206 0.9033 0.0842
vn 0.3268 0.9442 0.0411
vn 0.2653 0.9612 0.0754
vn 0.2141 0.9758 0.0433
vn 0.0786 0.9889 0.1263
vn 0.1275 0.9813 0.1440
vn 0.3009 0.9536 0.0062
vn 0.3117 0.9500 0.0208
vn 0.1707 0.9848 0.0315
vn -0.0589 0.9893 0.1335
vn -0.0172 0.9952 0.0961
vn -0.0959 0.9838 0.1517
vn -0.0953 0.9854 0.1414
vn -0.1516 0.9794 0.1330
vn -0.1592 0.9827 0.0945
vn -0.2656 0.9636 0.0300
vn -0.3651 0.9194 0.1464
vn -0.1355 0.9747 0.1779
vn -0.4377 0.8930 0.1053
vn -0.1485 0.9803 0.1305
vn -0.4858 0.8738 0.0209
vn -0.1501 0.9887 0.0016
vn -0.4927 0.8699 -0.0204
vn -0.1738 0.9789 -0.1078
vn -0.4076 0.8994 -0.1579
vn -0.5702 0.8213 0.0159
vn -0.5334 0.8404 -0.0957
vn -0.3760 0.9226 -0.0860
vn -0.5669 0.8237 0.0108
vn -0.5121 0.8549 0.0828
vn -0.3523 0.9296 0.1084
vn -0.2377 0.9712 -0.0187
vn -0.1960 0.9801 0.0321
vn -0.1038 0.9816 0.1604
vn -0.0852 0.9682 0.2351
vt 0.720761 0.003232
vt 0.638449 0.006339
vt 0.642866 0.088233
vt 0.725623 0.092270
vt 0.296400 0.002020
vt 0.286918 0.092217
vt 0.360411 0.089020
vt 0.366266 0.000614
vt 0.721307 0.986778
vt 0.724896 0.900375
vt 0.655156 0.900606
vt 0.635281 0.988617
vt 0.402006 0.935671
vt 0.292967 0.921146
vt 0.299962 0.989666
vt 0.388501 1.000000
vt 0.472560 0.992194
vt 0.488777 0.915542
vt 0.572750 0.899686
vt 0.552827 0.986768
vt 0.655413 0.809240
vt 0.575025 0.794758
vt 0.487781 0.804241
vt 0.563747 0.718317
vt 0.478325 0.726818
vt 0.408888 0.851266
vt 0.383062 0.739672
vt 0.474775 0.658383
vt 0.388404 0.655001
vt 0.285156 0.825162
vt 0.287627 0.725602
vt 0.288891 0.639824
vt 0.390186 0.574174
vt 0.285973 0.552627
vt 0.403319 0.481919
vt 0.464671 0.562212
vt 0.478927 0.480546
vt 0.286761 0.444765
vt 0.286222 0.352842
vt 0.370496 0.357658
vt 0.468489 0.375288
vt 0.463090 0.278111
vt 0.360695 0.265611
vt 0.285156 0.265647
vt 0.364244 0.177946
vt 0.288221 0.180061
vt 0.459106 0.178347
vt 0.446280 0.085169
vt 0.563150 0.171608
vt 0.555659 0.086739
vt 0.559854 0.276462
vt 0.647010 0.264951
vt 0.647581 0.169489
vt 0.549507 0.381973
vt 0.643230 0.366667
vt 0.556388 0.474197
vt 0.645673 0.459572
vt 0.660489 0.553119
vt 0.556351 0.559970
vt 0.571760 0.644378
vt 0.678936 0.641887
vt 0.662617 0.730232
vt 0.734885 0.722905
vt 0.741486 0.634143
vt 0.727769 0.810689
vt 0.738371 0.540519
vt 0.734883 0.448571
vt 0.732405 0.358805
vt 0.728970 0.269344
vt 0.727501 0.179260
vt 0.556333 0.001143
vt 0.459238 0.000000
s 1
usemtl coin
f 1/1/1 7/2/7 6/3/6 5/4/5
f 2/5/2 10/6/10 9/7/9 8/8/8
f 3/9/3 13/10/13 12/11/12 11/12/11
f 15/13/15 14/14/14 4/15/4 16/16/16
f 15/13/15 16/16/16 18/17/18 17/18/17
f 19/19/19 17/18/17 18/17/18 20/20/20
f 19/19/19 20/20/20 11/12/11 12/11/12
f 19/19/19 12/11/12 22/21/22 21/22/21
f 23/23/23 17/18/17 19/19/19 21/22/21
f 25/24/25 24/25/24 23/23/23 21/22/21
f 23/23/23 26/26/26 15/13/15 17/18/17
f 26/26/26 23/23/23 24/25/24 27/27/27
f 24/25/24 29/28/29 28/29/28 27/27/27
f 30/30/30 26/26/26 27/27/27 31/31/31
f 27/27/27 28/29/28 32/32/32 31/31/31
f 28/29/28 34/33/34 33/34/33 32/32/32
f 35/35/35 34/33/34 37/36/37 36/37/36
f 28/29/28 29/28/29 37/36/37 34/33/34
f 35/35/35 38/38/38 33/34/33 34/33/34
f 39/39/39 38/38/38 35/35/35 40/40/40
f 43/41/43 42/42/42 41/43/41 40/40/40
f 43/41/43 40/40/40 35/35/35 36/37/36
f 41/43/41 44/44/44 39/39/39 40/40/40
f 46/45/46 45/46/45 44/44/44 41/43/41
f 9/7/9 46/45/46 48/47/48 47/48/47
f 41/43/41 42/42/42 48/47/48 46/45/46
f 9/7/9 10/6/10 45/46/45 46/45/46
f 47/48/47 48/47/48 50/49/50 49/50/49
f 42/42/42 51/51/51 50/49/50 48/47/48
f 50/49/50 51/51/51 53/52/53 52/53/52
f 53/52/53 51/51/51 55/54/55 54/55/54
f 51/51/51 42/42/42 43/41/43 55/54/55
f 54/55/54 55/54/55 57/56/57 56/57/56
f 36/37/36 57/56/57 55/54/55 43/41/43
f 58/58/58 56/57/56 57/56/57 59/59/59
f 36/37/36 37/36/37 59/59/59 57/56/57
f 59/59/59 61/60/61 60/61/60 58/58/58
f 59/59/59 37/36/37 29/28/29 61/60/61
f 61/60/61 25/24/25 62/62/62 60/61/60
f 61/60/61 29/28/29 24/25/24 25/24/25
f 62/62/62 64/63/64 63/64/63 60/61/60
f 62/62/62 22/21/22 65/65/65 64/63/64
f 62/62/62 25/24/25 21/22/21 22/21/22
f 65/65/65 22/21/22 12/11/12 13/10/13
f 63/64/63 66/66/66 58/58/58 60/61/60
f 66/66/66 67/67/67 56/57/56 58/58/58
f 67/67/67 68/68/68 54/55/54 56/57/56
f 68/68/68 69/69/69 53/52/53 54/55/54
f 69/69/69 70/70/70 52/53/52 53/52/53
f 70/70/70 5/4/5 6/3/6 52/53/52
f 52/53/52 6/3/6 49/50/49 50/49/50
f 49/50/49 6/3/6 7/2/7 71/71/71
f 49/50/49 71/71/71 72/72/72 47/48/47
f 72/72/72 8/8/8 9/7/9 47/48/47
f 30/30/30 14/14/14 15/13/15 26/26/26
o Chest_Base_lp
v 0.163684 0.405622 0.388991
v 0.163684 0.405622 -0.387441
v 0.163684 0.405622 -0.041228
v 0.163684 0.405622 0.042868
v -0.167342 0.405622 -0.387441
v -0.171489 0.405622 0.388991
v 0.223727 0.020011 0.459034
v 0.223727 0.010011 0.449034
v 0.233727 0.020011 0.449034
v 0.223727 0.010011 -0.447485
v 0.223727 0.020011 -0.457485
v 0.233727 0.020011 -0.447485
v 0.233727 0.366889 0.449034
v 0.223727 0.366889 0.459034
v 0.223727 0.366889 -0.457485
v 0.233727 0.366889 -0.447485
v 0.233727 0.020011 -0.041228
v 0.223727 0.010011 -0.041228
v 0.243727 0.376889 -0.041228
v 0.243727 0.366889 -0.031228
v 0.233727 0.356889 -0.051228
v 0.243727 0.366889 0.032868
v 0.243727 0.376889 0.042868
v 0.233727 0.356889 0.052868
v 0.233727 0.020011 0.042868
v 0.223727 0.010011 0.042868
v 0.273710 0.376889 -0.041228
v 0.283710 0.376889 -0.031228
v 0.273710 0.366889 -0.031228
v 0.273710 0.395622 -0.041228
v 0.273710 0.405622 -0.031228
v 0.283710 0.395622 -0.031228
v 0.273710 0.366889 0.032868
v 0.283710 0.376889 0.032868
v 0.273710 0.376889 0.042868
v 0.273710 0.405622 0.032868
v 0.273710 0.395622 0.042868
v 0.283710 0.395622 0.032868
v -0.237065 0.020011 -0.447485
v -0.227012 0.020011 -0.457485
v -0.227065 0.010011 -0.447485
v -0.237065 0.366889 -0.447485
v -0.227012 0.366889 -0.457485
v -0.241854 0.020011 0.449034
v -0.231854 0.010011 0.449034
v -0.231908 0.020011 0.459034
v -0.231908 0.366889 0.459034
v -0.241854 0.366889 0.449034
v 0.233727 0.395622 0.052868
v 0.243727 0.395622 0.042868
v 0.223727 0.405622 0.032868
v 0.223727 0.405622 0.449034
v 0.223727 0.395622 0.459034
v 0.233727 0.395622 0.449034
v 0.223727 0.395622 -0.457485
v 0.223727 0.405622 -0.447485
v 0.233727 0.395622 -0.447485
v 0.223727 0.405622 -0.031228
v 0.243727 0.395622 -0.041228
v 0.233727 0.395622 -0.051228
v -0.237065 0.395622 -0.447485
v -0.227065 0.405622 -0.447485
v -0.227012 0.395622 -0.457485
v -0.241854 0.395622 0.449034
v -0.231908 0.395622 0.459034
v -0.231854 0.405622 0.449034
vn -0.0000 1.0000 -0.0000
vn 0.3416 -0.3416 0.8756
vn 0.3416 -0.8756 0.3416
vn 0.8756 -0.3416 0.3416
vn 0.3416 -0.8756 -0.3416
vn 0.3416 -0.3416 -0.8756
vn 0.8756 -0.3416 -0.3416
vn 0.9239 -0.0000 0.3827
vn 0.3827 -0.0000 0.9239
vn 0.3827 -0.0000 -0.9239
vn 0.9239 -0.0000 -0.3827
vn 0.9239 -0.3827 -0.0000
vn 0.3827 -0.9239 -0.0000
vn 0.5013 -0.2549 -0.8269
vn 0.5013 -0.8269 -0.2549
vn 0.9901 -0.0991 -0.0991
vn 0.5013 -0.8269 0.2549
vn 0.5013 -0.2549 0.8269
vn 0.9901 -0.0991 0.0991
vn 0.3416 0.3416 -0.8756
vn 0.3416 0.8756 -0.3416
vn 0.8756 0.3416 -0.3416
vn 0.3416 0.8756 0.3416
vn 0.3416 0.3416 0.8756
vn 0.8756 0.3416 0.3416
vn -0.8743 -0.3414 -0.3450
vn -0.3403 -0.3414 -0.8762
vn -0.3410 -0.8753 -0.3429
vn -0.9223 -0.0000 -0.3864
vn -0.3814 -0.0000 -0.9244
vn -0.8768 -0.3418 0.3382
vn -0.3421 -0.8759 0.3403
vn -0.3429 -0.3418 0.8750
vn -0.3839 -0.0000 0.9234
vn -0.9254 -0.0000 0.3790
vn 0.8269 0.5013 0.2549
vn 0.2549 0.5013 0.8269
vn 0.0991 0.9901 0.0991
vn 0.0991 0.9901 -0.0991
vn 0.2549 0.5013 -0.8269
vn 0.8269 0.5013 -0.2549
vn -0.8743 0.3414 -0.3450
vn -0.3410 0.8753 -0.3428
vn -0.3403 0.3414 -0.8762
vn -0.8768 0.3418 0.3382
vn -0.3429 0.3418 0.8750
vn -0.3421 0.8759 0.3403
vt 0.510238 0.134563
vt 0.513876 0.139068
vt 0.508585 0.139641
vt 0.513876 0.480060
vt 0.510221 0.484562
vt 0.508529 0.479523
vt 0.344874 0.325719
vt 0.348518 0.321594
vt 0.354164 0.330434
vt 0.348159 0.294637
vt 0.344553 0.290478
vt 0.353854 0.285785
vt 0.499479 0.496290
vt 0.499506 0.497944
vt 0.497917 0.497377
vt 0.501694 0.496656
vt 0.503112 0.497867
vt 0.501435 0.498201
vt 0.496908 0.504672
vt 0.498654 0.504241
vt 0.498488 0.505819
vt 0.502162 0.504965
vt 0.500668 0.505999
vt 0.500592 0.504418
vt 0.192217 0.703585
vt 0.186614 0.704584
vt 0.187927 0.699020
vt 0.524315 0.190116
vt 0.519788 0.185825
vt 0.525324 0.184515
vt 0.336421 0.284465
vt 0.337542 0.290612
vt 0.328439 0.291107
vt 0.365411 0.113229
vt 0.370276 0.109776
vt 0.370543 0.115140
vt 0.371786 0.510139
vt 0.366560 0.506485
vt 0.371921 0.504370
vt 0.328439 0.325060
vt 0.337732 0.325559
vt 0.336584 0.331813
vt 0.192979 0.853793
vt 0.188189 0.858334
vt 0.187105 0.852490
vt 0.675829 0.192997
vt 0.674471 0.187477
vt 0.680185 0.188392
vt 0.381796 0.110691
vt 0.381149 0.116260
vt 0.509720 0.324871
vt 0.504166 0.324947
vt 0.383870 0.509023
vt 0.383136 0.503310
vt 0.509900 0.290932
vt 0.504161 0.290841
vt 0.515013 0.488707
vt 0.505389 0.489058
vt 0.492055 0.490467
vt 0.497675 0.488483
vt 0.503981 0.513844
vt 0.514871 0.515250
vt 0.490804 0.510821
vt 0.495614 0.514549
vt 0.194339 0.841183
vt 0.188258 0.840827
vt 0.002098 0.859575
vt 0.002066 0.853229
vt 0.005798 0.686296
vt 0.005372 0.692509
vt 0.663559 0.194339
vt 0.663210 0.188393
vt 0.680185 0.000863
vt 0.674364 0.000863
vt 0.504219 0.005469
vt 0.509817 0.004986
vt 0.864991 0.368100
vt 0.864991 0.000705
vt 0.870787 0.000727
vt 0.870787 0.368122
vt 0.705272 0.368122
vt 0.705272 0.000727
vt 0.711068 0.000705
vt 0.711068 0.368100
vt 0.662491 0.000858
vt 0.487542 0.874524
vt 0.453080 0.874524
vt 0.286634 0.874524
vt 0.286634 0.687828
vt 0.654024 0.689791
vt 0.654024 0.874524
vt 0.002066 0.840305
vt 0.853217 0.000705
vt 0.853217 0.368100
vt 0.539713 0.519524
vt 0.538947 0.662855
vt 0.513950 0.687587
vt 0.539899 0.484699
vt 0.677744 0.663596
vt 0.702609 0.688594
vt 0.677744 0.342062
vt 0.540665 0.341330
vt 0.515934 0.316333
vt 0.702609 0.317330
s 1
usemtl Chest
f 79/73/74 80/74/75 81/75/76
f 82/76/77 83/77/78 84/78/79
f 91/79/86 92/80/87 93/81/88
f 94/82/89 95/83/90 96/84/91
f 99/85/78 100/86/79 101/87/77
f 102/88/92 103/89/93 104/90/94
f 105/91/75 106/92/76 107/93/74
f 108/94/95 109/95/96 110/96/97
f 111/97/98 112/98/99 113/99/100
f 116/100/103 117/101/104 118/102/105
f 121/103/108 122/104/109 123/105/110
f 124/106/95 125/107/96 126/108/97
f 127/109/92 128/110/93 129/111/94
f 130/112/111 131/113/112 132/114/113
f 133/115/114 134/116/115 135/117/116
f 136/118/117 137/119/118 138/120/119
f 86/121/81 79/73/74 81/75/76 85/122/80
f 90/123/85 82/76/77 84/78/79 89/124/84
f 83/77/78 87/125/82 88/126/83 84/78/79
f 123/105/110 124/106/95 126/108/97 121/103/108
f 87/125/82 127/109/92 129/111/94 88/126/83
f 125/107/96 86/121/81 85/122/80 126/108/97
f 98/127/85 90/123/85 89/124/84 97/128/84
f 128/110/93 130/112/111 132/114/113 129/111/94
f 93/81/88 132/114/113 131/113/112 91/79/86
f 92/80/87 94/82/89 96/84/91 93/81/88
f 80/74/75 98/127/85 97/128/84 81/75/76
f 95/83/90 122/104/109 121/103/108 96/84/91
f 99/85/78 102/88/92 104/90/94 100/86/79
f 100/86/79 106/92/76 105/91/75 101/87/77
f 103/89/93 108/94/95 110/96/97 104/90/94
f 106/92/76 110/96/97 109/95/96 107/93/74
f 130/129/111 103/89/93 102/88/92 131/130/112
f 101/87/77 92/131/87 91/132/86 99/85/78
f 122/133/109 109/95/96 108/94/95 123/134/110
f 94/135/89 105/91/75 107/93/74 95/136/90
f 111/97/98 114/137/101 115/138/102 112/98/99
f 114/137/101 133/115/114 135/117/116 115/138/102
f 134/116/115 128/139/93 127/140/92 135/117/116
f 82/141/77 113/99/100 112/98/99 83/142/78
f 120/143/107 116/100/103 118/102/105 119/144/106
f 136/118/117 120/143/107 119/144/106 137/119/118
f 124/145/95 138/120/119 137/119/118 125/146/96
f 117/101/104 80/147/75 79/148/74 118/102/105
f 133/149/114 136/150/117 138/151/119 134/152/115
f 113/153/100 117/154/104 116/155/103 111/156/98
f 79/148/74 86/157/81 119/144/106 118/102/105
f 81/75/76 97/128/84 96/84/91 85/122/80
f 90/158/85 98/159/85 80/160/75 117/161/104 113/162/100 82/163/77
f 89/124/84 84/78/79 88/126/83 93/81/88
f 87/164/82 83/142/78 112/98/99 115/138/102
f 85/122/80 96/84/91 121/103/108 126/108/97
f 86/157/81 125/146/96 137/119/118 119/144/106
f 93/81/88 88/126/83 129/111/94 132/114/113
f 127/140/92 87/164/82 115/138/102 135/117/116
f 97/128/84 89/124/84 93/81/88 96/84/91
f 91/132/86 131/130/112 102/88/92 99/85/78
f 94/135/89 92/131/87 101/87/77 105/91/75
f 122/133/109 95/136/90 107/93/74 109/95/96
f 106/92/76 100/86/79 104/90/94 110/96/97
f 130/129/111 123/134/110 108/94/95 103/89/93
f 111/156/98 116/155/103 120/165/107 114/166/101
f 114/166/101 120/165/107 136/150/117 133/149/114
f 76/167/73 73/168/73 124/169/95 123/134/110
f 75/170/73 76/167/73 123/134/110 130/129/111
f 73/168/73 78/171/73 138/172/119 124/169/95
f 77/173/73 74/174/73 128/175/93 134/176/115
f 74/174/73 75/170/73 130/129/111 128/175/93
f 78/171/73 77/173/73 134/176/115 138/172/119
o Chest_Lid_lp
v 0.146972 0.627948 0.439718
v 0.151968 0.654791 0.429665
v 0.135422 0.642680 0.452151
v 0.153677 0.635658 0.436509
v 0.144927 0.630008 0.448690
v 0.151926 0.637167 0.446559
v 0.148665 0.654109 0.439840
v 0.156589 0.643551 0.432887
v 0.154234 0.642847 0.443750
v 0.141958 0.633433 0.453083
v 0.142683 0.649732 0.447975
v 0.149706 0.639645 0.450039
v 0.147839 0.626559 -0.444372
v 0.136224 0.641401 -0.457304
v 0.152834 0.653447 -0.435056
v 0.146436 0.628322 -0.453938
v 0.154730 0.634337 -0.442829
v 0.153005 0.635811 -0.451992
v 0.144667 0.647196 -0.454033
v 0.143285 0.631990 -0.458685
v 0.151115 0.637867 -0.455334
v 0.157676 0.642427 -0.439410
v 0.150764 0.651617 -0.445867
v 0.155408 0.640980 -0.449584
v 0.121241 0.660935 0.442024
v 0.136615 0.674557 0.418725
v 0.128923 0.667755 0.438349
v 0.134550 0.672741 0.429821
v 0.121869 0.659928 -0.447764
v 0.137197 0.673627 -0.424686
v 0.129538 0.666769 -0.444153
v 0.135149 0.671783 -0.435706
v 0.089412 0.688132 0.424439
v 0.102114 0.704042 0.399732
v 0.095760 0.696092 0.420036
v 0.100409 0.701916 0.410993
v 0.089770 0.687552 -0.431221
v 0.102423 0.703547 -0.406827
v 0.096100 0.695545 -0.426928
v 0.100731 0.701399 -0.417999
v 0.052660 0.708473 0.408265
v 0.062196 0.726143 0.382267
v 0.057427 0.717309 0.403181
v 0.060918 0.723776 0.393665
v 0.052770 0.708284 -0.416007
v 0.062256 0.726047 -0.390400
v 0.057514 0.717165 -0.411074
v 0.060986 0.723666 -0.401701
v 0.012448 0.721196 0.394129
v 0.018396 0.740009 0.366989
v 0.015424 0.730600 0.388431
v 0.017601 0.737486 0.378497
v 0.012341 0.721347 -0.402710
v 0.018238 0.740262 -0.376028
v 0.015288 0.730807 -0.397200
v 0.017447 0.737730 -0.387434
v -0.029649 0.725855 0.382565
v -0.027602 0.745108 0.354472
v -0.028622 0.735475 0.376347
v -0.027873 0.742522 0.366064
v -0.029930 0.726283 -0.391833
v -0.027938 0.745645 -0.364249
v -0.028938 0.735970 -0.385834
v -0.028209 0.743057 -0.375738
v -0.072006 0.722322 0.374000
v -0.074031 0.741242 0.345182
v -0.073013 0.731774 0.367384
v -0.073755 0.738699 0.356835
v -0.072413 0.722956 -0.383778
v -0.074499 0.741992 -0.355506
v -0.073462 0.732482 -0.377403
v -0.074225 0.739450 -0.367055
v -0.113024 0.710778 0.368738
v -0.119107 0.728562 0.339466
v -0.116059 0.719660 0.361871
v -0.118286 0.726169 0.351157
v -0.113506 0.711539 -0.378830
v -0.119656 0.729441 -0.350126
v -0.116587 0.720500 -0.372218
v -0.118838 0.727052 -0.361712
v -0.151181 0.691685 0.366964
v -0.161096 0.707553 0.337536
v -0.156132 0.699608 0.360011
v -0.159761 0.705416 0.349240
v -0.151684 0.692491 -0.377162
v -0.161673 0.708476 -0.348310
v -0.156685 0.700494 -0.370469
v -0.160341 0.706345 -0.359908
v -0.185069 0.665760 0.368738
v -0.198386 0.679023 0.339466
v -0.191721 0.672381 0.361871
v -0.196596 0.677236 0.351157
v -0.185541 0.666527 -0.378830
v -0.198935 0.679902 -0.350126
v -0.192244 0.673224 -0.372218
v -0.197147 0.678120 -0.361712
v -0.213426 0.633953 0.374000
v -0.229543 0.644068 0.345182
v -0.221479 0.639002 0.367384
v -0.227378 0.642704 0.356835
v -0.213816 0.634597 -0.383778
v -0.230011 0.644817 -0.355506
v -0.221919 0.639716 -0.377403
v -0.227847 0.643456 -0.367055
v -0.235169 0.597432 0.382565
v -0.253370 0.604032 0.354472
v -0.244266 0.600726 0.376347
v -0.250928 0.603142 0.366064
v -0.235431 0.597872 -0.391833
v -0.253706 0.604570 -0.364249
v -0.244572 0.601227 -0.385834
v -0.251261 0.603678 -0.375738
v -0.249435 0.557554 0.394129
v -0.268952 0.560454 0.366989
v -0.259192 0.559001 0.388431
v -0.266335 0.560063 0.378497
v -0.249525 0.557715 -0.402710
v -0.269110 0.560707 -0.376028
v -0.259319 0.559214 -0.397200
v -0.266488 0.560309 -0.387434
v -0.255628 0.515833 0.408265
v -0.275690 0.515008 0.382267
v -0.265659 0.515422 0.403181
v -0.273002 0.515120 0.393665
v -0.255506 0.515652 -0.416007
v -0.275630 0.514912 -0.390400
v -0.265567 0.515281 -0.411074
v -0.272933 0.515011 -0.401701
v -0.253456 0.473884 0.424439
v -0.273325 0.469442 0.399732
v -0.263393 0.471668 0.420036
v -0.270666 0.470042 0.410993
v -0.253092 0.473309 -0.431221
v -0.273015 0.468947 -0.406827
v -0.263051 0.471123 -0.426928
v -0.270343 0.469527 -0.417999
v -0.242965 0.433354 0.442024
v -0.261948 0.425507 0.418725
v -0.252462 0.429439 0.438349
v -0.259410 0.426567 0.429821
v -0.242335 0.432348 -0.447764
v -0.261366 0.424577 -0.424686
v -0.251845 0.428454 -0.444153
v -0.258811 0.425609 -0.435706
v -0.232773 0.412605 0.452151
v -0.250913 0.403043 0.429665
v -0.224596 0.395767 0.439718
v -0.241700 0.407597 0.448805
v -0.227447 0.402183 0.453825
v -0.236177 0.397757 0.450388
v -0.243163 0.393899 0.434343
v -0.248358 0.404087 0.440551
v -0.240864 0.395286 0.444577
v -0.225557 0.397782 0.449261
v -0.234615 0.393007 0.438033
v -0.235175 0.395185 0.447175
v -0.231976 0.411324 -0.457304
v -0.223728 0.394379 -0.444372
v -0.250084 0.401676 -0.435056
v -0.226486 0.401327 -0.457991
v -0.241453 0.407789 -0.453261
v -0.235449 0.397047 -0.455025
v -0.233607 0.391740 -0.441386
v -0.224678 0.397109 -0.453414
v -0.234186 0.393956 -0.451413
v -0.247997 0.404301 -0.445215
v -0.241990 0.392590 -0.438030
v -0.240307 0.394370 -0.448813
v 0.140063 0.634910 0.437701
v 0.143487 0.649403 0.428300
v 0.135564 0.639621 0.442451
v 0.144537 0.639648 0.435295
v 0.139325 0.635798 0.442649
v 0.143700 0.639825 0.441353
v 0.142075 0.648075 0.435033
v 0.145553 0.643785 0.431656
v 0.144543 0.641836 0.439114
v 0.138365 0.636109 0.443254
v 0.139774 0.644617 0.439692
v 0.143390 0.639667 0.441480
v 0.140952 0.633601 -0.442576
v 0.136359 0.638503 -0.447553
v 0.144348 0.648041 -0.433797
v 0.140753 0.634203 -0.448069
v 0.145613 0.638382 -0.441634
v 0.144757 0.638595 -0.446892
v 0.141672 0.642324 -0.445632
v 0.139628 0.634778 -0.448884
v 0.144704 0.638123 -0.446789
v 0.146649 0.642613 -0.438160
v 0.144014 0.645723 -0.441106
v 0.145681 0.640222 -0.444871
v 0.122280 0.656711 0.432849
v 0.129642 0.667311 0.417484
v 0.127005 0.661625 0.430498
v 0.129332 0.665359 0.425245
v 0.122801 0.655908 -0.438483
v 0.130193 0.666409 -0.423452
v 0.127537 0.660787 -0.436206
v 0.129847 0.664471 -0.431110
v 0.090688 0.683793 0.415352
v 0.096664 0.695603 0.398553
v 0.094680 0.689500 0.412419
v 0.096559 0.693641 0.406635
v 0.090916 0.683406 -0.422023
v 0.096936 0.695134 -0.405629
v 0.094891 0.689098 -0.419202
v 0.096780 0.693204 -0.413577
v 0.054149 0.704043 0.399258
v 0.058456 0.716840 0.381120
v 0.057166 0.710424 0.395769
v 0.058530 0.714918 0.389457
v 0.054130 0.704044 -0.406885
v 0.058474 0.716763 -0.389236
v 0.057124 0.710409 -0.403545
v 0.058491 0.714868 -0.397424
v 0.014166 0.716716 0.385191
v 0.016483 0.730190 0.365869
v 0.016013 0.723568 0.381193
v 0.016728 0.728318 0.374417
v 0.013933 0.717052 -0.393654
v 0.016283 0.730452 -0.374895
v 0.015755 0.723890 -0.389838
v 0.016470 0.728603 -0.383282
v -0.027690 0.721366 0.373683
v -0.027639 0.735127 0.353373
v -0.027171 0.728440 0.369248
v -0.027221 0.733312 0.362086
v -0.028095 0.721976 -0.382832
v -0.028012 0.735665 -0.363145
v -0.027598 0.729038 -0.378608
v -0.027647 0.733869 -0.371690
v -0.069803 0.717867 0.365160
v -0.072207 0.731449 0.344099
v -0.070711 0.724876 0.360386
v -0.071607 0.729702 0.352932
v -0.070331 0.718679 -0.374817
v -0.072702 0.732193 -0.354425
v -0.071255 0.725679 -0.370277
v -0.072146 0.730465 -0.363084
v -0.110584 0.706398 0.359925
v -0.115495 0.719291 0.338393
v -0.112936 0.713033 0.354936
v -0.114708 0.717630 0.347299
v -0.111182 0.707338 -0.369895
v -0.116058 0.720165 -0.349059
v -0.113544 0.713968 -0.365154
v -0.115302 0.718524 -0.357789
v -0.148516 0.687420 0.358160
v -0.155826 0.699119 0.336467
v -0.152241 0.693381 0.353097
v -0.154853 0.697562 0.345398
v -0.149132 0.688406 -0.368235
v -0.156403 0.700041 -0.347248
v -0.152857 0.694367 -0.363426
v -0.155447 0.698513 -0.356002
v -0.182202 0.661646 0.359925
v -0.191637 0.671713 0.338393
v -0.187134 0.666670 0.354936
v -0.190488 0.670277 0.347299
v -0.182784 0.662596 -0.369895
v -0.192175 0.672601 -0.349059
v -0.187708 0.667625 -0.365154
v -0.191032 0.671203 -0.357789
v -0.210387 0.630021 0.365160
v -0.221540 0.638135 0.344099
v -0.216288 0.633909 0.360386
v -0.220233 0.636831 0.352932
v -0.210886 0.630851 -0.374817
v -0.221992 0.638906 -0.354425
v -0.216772 0.634750 -0.370277
v -0.220683 0.637649 -0.363084
v -0.231993 0.593703 0.373683
v -0.244383 0.599690 0.353373
v -0.238579 0.596338 0.369248
v -0.242935 0.598518 0.362086
v -0.232363 0.594334 -0.382832
v -0.244704 0.600261 -0.363145
v -0.238928 0.596984 -0.378608
v -0.243250 0.599146 -0.371690
v -0.246162 0.554045 0.385191
v -0.259288 0.557869 0.365869
v -0.253130 0.555389 0.381193
v -0.257713 0.556828 0.374417
v -0.246362 0.554402 -0.393654
v -0.259436 0.558164 -0.374895
v -0.253307 0.555762 -0.389838
v -0.257855 0.557185 -0.383282
v -0.252299 0.512553 0.399258
v -0.265689 0.514292 0.381120
v -0.259357 0.512638 0.395769
v -0.263994 0.513383 0.389457
v -0.252291 0.512570 -0.406885
v -0.265627 0.514242 -0.389236
v -0.259325 0.512670 -0.403545
v -0.263932 0.513396 -0.397424
v -0.250116 0.470835 0.415352
v -0.263350 0.470641 0.398553
v -0.256995 0.469749 0.412419
v -0.261540 0.469876 0.406635
v -0.249868 0.470460 -0.422023
v -0.263048 0.470191 -0.405629
v -0.256727 0.469384 -0.419202
v -0.261245 0.469485 -0.413577
v -0.239638 0.430552 0.432849
v -0.252376 0.428599 0.417507
v -0.246119 0.428436 0.430498
v -0.250469 0.428008 0.425278
v -0.239115 0.429766 -0.438483
v -0.251812 0.427707 -0.423429
v -0.245585 0.427672 -0.436207
v -0.249936 0.427183 -0.431075
v -0.230083 0.410998 0.442476
v -0.242314 0.408270 0.428415
v -0.227880 0.405050 0.437906
v -0.235882 0.407960 0.440484
v -0.228210 0.406533 0.443983
v -0.233438 0.403483 0.441842
v -0.238466 0.403870 0.433088
v -0.240033 0.407461 0.435834
v -0.235825 0.403620 0.439878
v -0.228285 0.405444 0.443327
v -0.234220 0.402973 0.436828
v -0.233963 0.403793 0.442051
v -0.229430 0.410066 -0.447534
v -0.226975 0.403641 -0.442389
v -0.241545 0.406970 -0.433684
v -0.227450 0.405885 -0.448203
v -0.235701 0.408351 -0.444902
v -0.232850 0.402875 -0.446466
v -0.233210 0.401707 -0.440194
v -0.227492 0.404713 -0.447445
v -0.233066 0.402549 -0.446247
v -0.239752 0.407692 -0.440368
v -0.237391 0.402632 -0.436808
v -0.235242 0.402715 -0.444164
v 0.152442 0.654055 -0.043682
v 0.157184 0.642935 -0.044607
v 0.154253 0.634935 -0.044839
v 0.147446 0.627188 -0.044232
v -0.224121 0.395007 -0.044232
v -0.234063 0.392314 -0.043360
v -0.242521 0.393182 -0.043193
v -0.250459 0.402295 -0.043682
v 0.136934 0.674048 -0.042957
v 0.102283 0.703771 -0.041777
v 0.062229 0.726090 -0.040690
v 0.018310 0.740147 -0.039737
v -0.027786 0.745402 -0.038955
v -0.074288 0.741653 -0.038374
v -0.119407 0.729043 -0.038016
v -0.161412 0.708058 -0.037895
v -0.198687 0.679504 -0.038016
v -0.229799 0.644478 -0.038374
v -0.253554 0.604327 -0.038955
v -0.269038 0.560592 -0.039737
v -0.275657 0.514956 -0.040690
v -0.273155 0.469171 -0.041777
v -0.261630 0.424998 -0.042957
v 0.143958 0.648657 -0.043611
v 0.146153 0.643144 -0.044480
v 0.145126 0.638955 -0.044735
v 0.140550 0.634194 -0.044161
v -0.227385 0.404279 -0.043966
v -0.233667 0.402280 -0.043253
v -0.237878 0.403192 -0.043092
v -0.241893 0.407559 -0.043497
v 0.129944 0.666817 -0.042843
v 0.096813 0.695346 -0.041655
v 0.058466 0.716798 -0.040572
v 0.016374 0.730334 -0.039624
v -0.027843 0.735422 -0.038848
v -0.072478 0.731856 -0.038272
v -0.115803 0.719769 -0.037917
v -0.156142 0.699624 -0.037798
v -0.191931 0.672199 -0.037917
v -0.221788 0.638557 -0.038272
v -0.244559 0.600003 -0.038848
v -0.259369 0.558030 -0.039624
v -0.265655 0.514264 -0.040572
v -0.263185 0.470395 -0.041655
v -0.252067 0.428111 -0.042820
v 0.152354 0.654193 0.044915
v -0.224210 0.395149 0.046350
v 0.136874 0.674143 0.043457
v 0.102251 0.703822 0.040861
v 0.062223 0.726100 0.038476
v 0.018326 0.740121 0.036390
v -0.027752 0.745347 0.034683
v -0.074240 0.741576 0.033417
v -0.119351 0.728953 0.032638
v -0.161353 0.707963 0.032375
v -0.198630 0.679414 0.032638
v -0.229751 0.644401 0.033417
v -0.253520 0.604271 0.034683
v -0.269022 0.560566 0.036390
v -0.275663 0.514966 0.038476
v -0.273187 0.469222 0.040861
v -0.261689 0.425093 0.043457
v 0.143870 0.648797 0.044718
v -0.227478 0.404423 0.046227
v 0.129887 0.666910 0.043317
v 0.096785 0.695394 0.040740
v 0.058464 0.716806 0.038357
v 0.016394 0.730307 0.036273
v -0.027805 0.735367 0.034565
v -0.072427 0.731780 0.033297
v -0.115746 0.719680 0.032517
v -0.156083 0.699530 0.032254
v -0.191876 0.672108 0.032517
v -0.221742 0.638478 0.033297
v -0.244526 0.599944 0.034565
v -0.259354 0.558000 0.036273
v -0.265661 0.514269 0.038357
v -0.263216 0.470441 0.040740
v -0.252125 0.428202 0.043340
v 0.157073 0.643050 0.044767
v 0.154145 0.635070 0.045256
v 0.147358 0.627330 0.046350
v -0.234166 0.392444 0.046743
v -0.242641 0.393316 0.046189
v -0.250544 0.402435 0.044915
v 0.146040 0.643264 0.044639
v 0.145016 0.639084 0.045114
v 0.140459 0.634328 0.046030
v -0.233771 0.402410 0.046605
v -0.237988 0.403319 0.046036
v -0.241972 0.407692 0.044832
v 0.196847 0.670597 0.043147
v 0.196986 0.670518 -0.042896
v 0.189710 0.680198 -0.042829
v 0.189585 0.680304 0.043291
v 0.157128 0.642993 0.000080
v 0.154199 0.635002 0.000208
v 0.147402 0.627259 0.001059
v -0.234115 0.392379 0.001692
v -0.242581 0.393249 0.001498
v -0.250501 0.402365 0.000617
v 0.146097 0.643204 0.000079
v 0.145071 0.639020 0.000190
v 0.140504 0.634261 0.000934
v -0.233719 0.402345 0.001676
v -0.237933 0.403256 0.001472
v -0.241932 0.407625 0.000667
v 0.152398 0.654124 0.000617
v -0.224165 0.395078 0.001059
v 0.136904 0.674095 0.000250
v 0.102267 0.703797 -0.000458
v 0.062226 0.726095 -0.001107
v 0.018318 0.740134 -0.001673
v -0.027769 0.745374 -0.002136
v -0.074264 0.741614 -0.002479
v -0.119379 0.728998 -0.002689
v -0.161382 0.708011 -0.002760
v -0.198658 0.679459 -0.002689
v -0.229775 0.644440 -0.002479
v -0.253537 0.604299 -0.002136
v -0.269030 0.560579 -0.001673
v -0.275660 0.514961 -0.001107
v -0.273171 0.469197 -0.000458
v -0.261659 0.425045 0.000250
v 0.143914 0.648727 0.000554
v -0.227431 0.404351 0.001131
v 0.129916 0.666864 0.000237
v 0.096799 0.695370 -0.000458
v 0.058465 0.716802 -0.001107
v 0.016384 0.730320 -0.001676
v -0.027824 0.735394 -0.002142
v -0.072453 0.731818 -0.002487
v -0.115774 0.719725 -0.002700
v -0.156112 0.699577 -0.002772
v -0.191904 0.672154 -0.002700
v -0.221765 0.638518 -0.002487
v -0.244542 0.599974 -0.002142
v -0.259362 0.558015 -0.001676
v -0.265658 0.514267 -0.001107
v -0.263200 0.470418 -0.000458
v -0.252096 0.428156 0.000260
v 0.201715 0.673556 0.000129
v 0.194446 0.683250 0.000228
v 0.157156 0.642964 -0.022263
v 0.154226 0.634969 -0.022316
v 0.147424 0.627223 -0.021586
v -0.234089 0.392346 -0.020834
v -0.242551 0.393216 -0.020847
v -0.250480 0.402330 -0.021533
v 0.146125 0.643174 -0.022200
v 0.145099 0.638987 -0.022273
v 0.140527 0.634227 -0.021613
v -0.233693 0.402312 -0.020789
v -0.237905 0.403224 -0.020810
v -0.241913 0.407592 -0.021415
v 0.200448 0.672723 -0.021383
v 0.152420 0.654090 -0.021533
v -0.224143 0.395042 -0.021586
v 0.136919 0.674071 -0.021354
v 0.102275 0.703784 -0.021118
v 0.062227 0.726093 -0.020899
v 0.018314 0.740141 -0.020705
v -0.027778 0.745388 -0.020546
v -0.074276 0.741633 -0.020426
v -0.119393 0.729020 -0.020352
v -0.161397 0.708034 -0.020327
v -0.198673 0.679481 -0.020352
v -0.229787 0.644459 -0.020426
v -0.253545 0.604313 -0.020546
v -0.269034 0.560586 -0.020705
v -0.275658 0.514958 -0.020899
v -0.273163 0.469184 -0.021118
v -0.261644 0.425021 -0.021354
v 0.143936 0.648692 -0.021529
v -0.227408 0.404315 -0.021418
v 0.129930 0.666841 -0.021303
v 0.096806 0.695358 -0.021056
v 0.058466 0.716800 -0.020840
v 0.016379 0.730327 -0.020650
v -0.027834 0.735408 -0.020495
v -0.072465 0.731837 -0.020380
v -0.115789 0.719747 -0.020309
v -0.156127 0.699600 -0.020285
v -0.191918 0.672176 -0.020309
v -0.221776 0.638538 -0.020380
v -0.244551 0.599988 -0.020495
v -0.259365 0.558023 -0.020650
v -0.265657 0.514266 -0.020840
v -0.263192 0.470406 -0.021056
v -0.252082 0.428133 -0.021280
v 0.193175 0.682409 -0.021300
v 0.152376 0.654158 0.022766
v -0.224187 0.395113 0.023705
v 0.136889 0.674119 0.021854
v 0.102259 0.703809 0.020202
v 0.062224 0.726098 0.018684
v 0.018322 0.740128 0.017358
v -0.027760 0.745361 0.016274
v -0.074252 0.741595 0.015469
v -0.119365 0.728975 0.014975
v -0.161368 0.707987 0.014808
v -0.198644 0.679436 0.014975
v -0.229763 0.644421 0.015469
v -0.253528 0.604285 0.016274
v -0.269026 0.560573 0.017358
v -0.275661 0.514963 0.018684
v -0.273179 0.469209 0.020202
v -0.261674 0.425069 0.021854
v 0.143892 0.648762 0.022636
v -0.227454 0.404387 0.023679
v 0.129902 0.666887 0.021777
v 0.096792 0.695382 0.020141
v 0.058465 0.716804 0.018625
v 0.016389 0.730314 0.017298
v -0.027815 0.735380 0.016212
v -0.072440 0.731799 0.015405
v -0.115760 0.719702 0.014909
v -0.156097 0.699553 0.014741
v -0.191890 0.672131 0.014909
v -0.221753 0.638498 0.015405
v -0.244534 0.599959 0.016212
v -0.259358 0.558008 0.017298
v -0.265660 0.514268 0.018625
v -0.263208 0.470429 0.020141
v -0.252111 0.428179 0.021800
v 0.193112 0.682462 0.021759
v 0.157100 0.643022 0.022423
v 0.154172 0.635036 0.022732
v 0.147380 0.627294 0.023705
v -0.234141 0.392411 0.024218
v -0.242611 0.393283 0.023843
v -0.250523 0.402400 0.022766
v 0.146069 0.643234 0.022359
v 0.145043 0.639052 0.022652
v 0.140481 0.634294 0.023482
v -0.233745 0.402377 0.024140
v -0.237960 0.403287 0.023754
v -0.241952 0.407659 0.022750
v 0.200378 0.672762 0.021638
vn 0.4615 -0.8826 -0.0900
vn 0.8685 -0.4815 0.1175
vn 0.8145 -0.3594 0.4554
vn 0.5844 -0.6302 0.5113
vn 0.9447 -0.3207 0.0688
vn 0.9322 -0.2260 0.2826
vn 0.8301 0.5409 0.1354
vn 0.6468 0.5977 0.4737
vn 0.6911 0.5069 0.5152
vn 0.8873 0.4357 0.1511
vn 0.2929 0.5013 0.8142
vn 0.3708 0.4005 0.8379
vn -0.0084 0.2980 0.9545
vn 0.0699 0.1922 0.9789
vn 0.4788 -0.5099 0.7147
vn 0.6913 -0.2862 0.6634
vn 0.4534 -0.8847 0.1083
vn 0.5915 -0.6381 -0.4930
vn 0.8145 -0.3844 -0.4346
vn 0.8642 -0.4903 -0.1134
vn 0.4875 -0.5211 -0.7005
vn 0.6984 -0.3185 -0.6409
vn -0.0093 0.2833 -0.9590
vn 0.3011 0.4768 -0.8258
vn 0.3754 0.3822 -0.8444
vn 0.0735 0.1770 -0.9815
vn 0.6612 0.5845 -0.4703
vn 0.6939 0.4901 -0.5275
vn 0.8281 0.5463 -0.1256
vn 0.8836 0.4424 -0.1536
vn 0.9426 -0.3277 -0.0646
vn 0.9259 -0.2616 -0.2726
vn -0.2641 0.1522 0.9524
vn -0.5725 -0.0443 0.8187
vn -0.5199 -0.1518 0.8407
vn -0.2054 0.0312 0.9782
vn -0.8217 -0.3276 0.4664
vn -0.7520 -0.3959 0.5270
vn -0.8561 -0.5015 0.1248
vn -0.7877 -0.5964 0.1545
vn -0.1200 -0.9907 0.0643
vn 0.0582 -0.9917 0.1144
vn -0.0233 -0.8984 0.4386
vn -0.1779 -0.9466 0.2690
vn 0.5948 -0.7968 -0.1062
vn 0.3080 -0.8095 0.4998
vn 0.2450 -0.6593 0.7108
vn -0.0374 -0.7606 0.6482
vn -0.2510 0.1192 -0.9606
vn -0.1897 0.0028 -0.9818
vn -0.5112 -0.1740 -0.8416
vn -0.5674 -0.0609 -0.8212
vn 0.2578 -0.6615 -0.7043
vn 0.3163 -0.8040 -0.5036
vn -0.0222 -0.8930 -0.4495
vn -0.0282 -0.7545 -0.6557
vn 0.5919 -0.8006 0.0935
vn 0.0551 -0.9918 -0.1150
vn -0.1240 -0.9900 -0.0680
vn -0.1966 -0.9385 -0.2838
vn -0.8479 -0.5124 -0.1359
vn -0.8143 -0.3301 -0.4775
vn -0.7514 -0.4106 -0.5165
vn -0.7779 -0.6102 -0.1502
vn 0.8411 0.5409 0.0001
vn 0.9229 0.3852 0.0005
vn 0.8521 -0.5234 0.0032
vn 0.8601 -0.5101 0.0018
vn 0.0302 -0.9995 0.0016
vn 0.6835 0.7198 0.1211
vn 0.5093 0.7355 0.4469
vn 0.1831 0.6144 0.7674
vn -0.1086 0.4268 0.8978
vn 0.6869 0.7167 -0.1204
vn 0.5176 0.7285 -0.4488
vn 0.1916 0.5996 -0.7770
vn -0.0978 0.4064 -0.9084
vn 0.5296 0.8404 0.1148
vn 0.3716 0.8255 0.4247
vn 0.0990 0.6611 0.7437
vn -0.1325 0.4386 0.8889
vn 0.5342 0.8372 -0.1166
vn 0.3817 0.8176 -0.4311
vn 0.1120 0.6466 -0.7546
vn -0.1193 0.4192 -0.9000
vn 0.3579 0.9271 0.1115
vn 0.2254 0.8841 0.4093
vn 0.0172 0.6907 0.7229
vn -0.1537 0.4478 0.8808
vn 0.3635 0.9247 -0.1132
vn 0.2361 0.8781 -0.4162
vn 0.0301 0.6778 -0.7347
vn -0.1407 0.4288 -0.8924
vn 0.1760 0.9784 0.1086
vn 0.0749 0.9151 0.3962
vn -0.0673 0.7057 0.7053
vn -0.1766 0.4530 0.8739
vn 0.1818 0.9772 -0.1098
vn 0.0852 0.9111 -0.4032
vn -0.0551 0.6942 -0.7176
vn -0.1638 0.4344 -0.8857
vn -0.0093 0.9943 0.1062
vn -0.0756 0.9195 0.3857
vn -0.1525 0.7063 0.6913
vn -0.2004 0.4540 0.8682
vn -0.0041 0.9943 -0.1068
vn -0.0667 0.9173 -0.3926
vn -0.1414 0.6961 -0.7039
vn -0.1880 0.4358 -0.8802
vn -0.1917 0.9759 0.1045
vn -0.2224 0.8987 0.3780
vn -0.2363 0.6931 0.6810
vn -0.2245 0.4508 0.8639
vn -0.1879 0.9766 -0.1045
vn -0.2157 0.8975 -0.3846
vn -0.2268 0.6836 -0.6937
vn -0.2124 0.4328 -0.8761
vn -0.3659 0.9249 0.1035
vn -0.3622 0.8541 0.3733
vn -0.3169 0.6666 0.6747
vn -0.2480 0.4435 0.8613
vn -0.3640 0.9257 -0.1029
vn -0.3582 0.8530 -0.3797
vn -0.3090 0.6572 -0.6874
vn -0.2363 0.4255 -0.8736
vn -0.5271 0.8435 0.1032
vn -0.4920 0.7873 0.3717
vn -0.3922 0.6276 0.6726
vn -0.2700 0.4321 0.8604
vn -0.5271 0.8436 -0.1024
vn -0.4906 0.7851 -0.3780
vn -0.3859 0.6176 -0.6853
vn -0.2587 0.4141 -0.8727
vn -0.6709 0.7343 0.1035
vn -0.6089 0.6999 0.3733
vn -0.4603 0.5770 0.6747
vn -0.2899 0.4173 0.8613
vn -0.6724 0.7330 -0.1029
vn -0.6096 0.6958 -0.3797
vn -0.4552 0.5658 -0.6874
vn -0.2789 0.3989 -0.8736
vn -0.7931 0.6001 0.1045
vn -0.7103 0.5938 0.3780
vn -0.5194 0.5162 0.6810
vn -0.3068 0.3994 0.8639
vn -0.7954 0.5970 -0.1045
vn -0.7121 0.5873 -0.3846
vn -0.5151 0.5035 -0.6937
vn -0.2959 0.3806 -0.8761
vn -0.8896 0.4442 0.1062
vn -0.7933 0.4710 0.3857
vn -0.5680 0.4467 0.6913
vn -0.3202 0.3792 0.8682
vn -0.8919 0.4395 -0.1068
vn -0.7952 0.4621 -0.3926
vn -0.5637 0.4322 -0.7039
vn -0.3093 0.3600 -0.8802
vn -0.9565 0.2707 0.1086
vn -0.8553 0.3338 0.3962
vn -0.6048 0.3698 0.7053
vn -0.3297 0.3573 0.8739
vn -0.9580 0.2649 -0.1098
vn -0.8563 0.3228 -0.4032
vn -0.5998 0.3538 -0.7176
vn -0.3186 0.3377 -0.8857
vn -0.9902 0.0847 0.1115
vn -0.8934 0.1850 0.4093
vn -0.6284 0.2873 0.7229
vn -0.3351 0.3344 0.8808
vn -0.9905 0.0786 -0.1132
vn -0.8927 0.1727 -0.4162
vn -0.6224 0.2701 -0.7347
vn -0.3237 0.3144 -0.8924
vn -0.9875 -0.1076 0.1148
vn -0.9049 0.0279 0.4247
vn -0.6376 0.2009 0.7437
vn -0.3361 0.3113 0.8889
vn -0.9867 -0.1132 -0.1166
vn -0.9022 0.0153 -0.4311
vn -0.6302 0.1828 -0.7546
vn -0.3244 0.2910 -0.9000
vn -0.9469 -0.2989 0.1189
vn -0.8862 -0.1340 0.4436
vn -0.6318 0.1088 0.7674
vn -0.3346 0.2864 0.8978
vn -0.9450 -0.3032 -0.1227
vn -0.8797 -0.1473 -0.4522
vn -0.6236 0.0865 -0.7770
vn -0.3239 0.2642 -0.9084
vn 0.8857 -0.4643 0.0016
vn 0.0814 -0.9967 0.0016
vn -0.1029 -0.9947 0.0013
vn -0.7575 -0.6528 0.0001
vn -0.8341 -0.5517 -0.0000
vn 0.8370 0.5471 0.0001
vn 0.7245 0.6893 -0.0002
vn 0.5721 0.8202 -0.0003
vn 0.3983 0.9173 -0.0001
vn 0.2107 0.9776 0.0003
vn 0.0171 0.9999 0.0007
vn -0.1751 0.9845 0.0011
vn -0.3594 0.9332 0.0014
vn -0.5299 0.8480 0.0015
vn -0.6812 0.7321 0.0014
vn -0.8081 0.5890 0.0011
vn -0.9062 0.4229 0.0007
vn -0.9710 0.2392 0.0003
vn -0.9990 0.0441 -0.0001
vn -0.9880 -0.1547 -0.0003
vn -0.9371 -0.3490 -0.0002
vn -0.8319 -0.5550 -0.0000
vn -0.6663 0.7353 -0.1236
vn -0.5744 0.5932 -0.5641
vn -0.6559 -0.1312 -0.7434
vn -0.8863 0.4572 -0.0744
vn -0.8562 -0.2755 -0.4370
vn -0.9838 -0.1403 -0.1113
vn -0.8362 -0.5354 -0.1193
vn -0.6396 -0.6148 -0.4615
vn -0.3434 -0.1835 -0.9211
vn -0.2273 -0.5363 -0.8129
vn 0.0571 -0.3428 -0.9377
vn -0.2005 0.0783 -0.9766
vn -0.6641 0.7408 0.1012
vn -0.8804 0.4696 0.0669
vn -0.3666 0.8968 0.2475
vn -0.5848 0.6017 0.5440
vn -0.1933 -0.2258 0.9548
vn -0.2080 0.0754 0.9752
vn 0.0569 -0.3275 0.9431
vn -0.2315 -0.5156 0.8250
vn -0.8592 -0.2435 0.4499
vn -0.6540 -0.6045 0.4548
vn -0.8321 -0.5444 0.1061
vn -0.9818 -0.1536 0.1119
vn 0.2859 -0.2198 -0.9327
vn 0.0398 0.1893 -0.9811
vn 0.3052 -0.0457 -0.9512
vn 0.5764 -0.0436 -0.8160
vn 0.5994 0.6605 -0.4522
vn 0.8364 0.3109 -0.4514
vn 0.8558 0.5065 -0.1053
vn 0.5709 0.8132 -0.1132
vn -0.5647 0.7781 -0.2749
vn -0.0395 0.9973 -0.0623
vn -0.3729 0.9228 -0.0968
vn -0.2599 0.7757 -0.5751
vn 0.2675 -0.1773 0.9471
vn 0.5705 -0.0081 0.8213
vn 0.3241 0.2846 0.9022
vn 0.0078 0.2338 0.9722
vn 0.3040 0.7136 0.6311
vn -0.2963 0.7804 0.5506
vn -0.3691 0.9209 0.1255
vn -0.0216 0.9970 0.0748
vn 0.6167 0.6553 0.4363
vn 0.5548 0.8247 0.1097
vn 0.8457 0.5200 0.1199
vn 0.8268 0.3169 0.4648
vn -0.8712 -0.4910 -0.0002
vn -0.9979 -0.0644 -0.0011
vn -0.8771 0.4804 -0.0017
vn -0.7236 0.6902 -0.0018
vn -0.5131 -0.7362 -0.4412
vn -0.6852 -0.7202 -0.1090
vn -0.1677 -0.6045 -0.7787
vn 0.1226 -0.4172 -0.9005
vn -0.6888 -0.7168 0.1080
vn -0.5221 -0.7294 0.4420
vn -0.1746 -0.5891 0.7890
vn 0.1124 -0.3961 0.9113
vn -0.3763 -0.8264 -0.4190
vn -0.5306 -0.8410 -0.1053
vn -0.0878 -0.6497 -0.7551
vn 0.1433 -0.4269 -0.8929
vn -0.5354 -0.8378 0.1067
vn -0.3862 -0.8186 0.4252
vn -0.1008 -0.6348 0.7661
vn 0.1302 -0.4072 0.9040
vn -0.2286 -0.8853 -0.4050
vn -0.3582 -0.9278 -0.1040
vn -0.0103 -0.6803 -0.7329
vn 0.1605 -0.4370 -0.8850
vn -0.3641 -0.9254 0.1052
vn -0.2393 -0.8794 0.4115
vn -0.0231 -0.6668 0.7449
vn 0.1477 -0.4175 0.8966
vn -0.0771 -0.9164 -0.3927
vn -0.1759 -0.9791 -0.1025
vn 0.0711 -0.6963 -0.7142
vn 0.1803 -0.4432 -0.8781
vn -0.1820 -0.9779 0.1032
vn -0.0874 -0.9126 0.3993
vn 0.0589 -0.6843 0.7268
vn 0.1677 -0.4240 0.8900
vn 0.0743 -0.9209 -0.3827
vn 0.0096 -0.9948 -0.1011
vn 0.1538 -0.6981 -0.6993
vn 0.2018 -0.4452 -0.8724
vn 0.0041 -0.9949 0.1011
vn 0.0654 -0.9188 0.3892
vn 0.1427 -0.6872 0.7123
vn 0.1894 -0.4263 0.8845
vn 0.2217 -0.9000 -0.3753
vn 0.1920 -0.9763 -0.1000
vn 0.2358 -0.6859 -0.6884
vn 0.2240 -0.4430 -0.8681
vn 0.1881 -0.9771 0.0994
vn 0.2151 -0.8990 0.3816
vn 0.2262 -0.6758 0.7015
vn 0.2117 -0.4243 0.8804
vn 0.3621 -0.8552 -0.3708
vn 0.3662 -0.9252 -0.0993
vn 0.3149 -0.6604 -0.6817
vn 0.2458 -0.4366 -0.8654
vn 0.3642 -0.9261 0.0982
vn 0.3582 -0.8542 0.3768
vn 0.3068 -0.6503 0.6949
vn 0.2339 -0.4180 0.8778
vn 0.4925 -0.7881 -0.3692
vn 0.5273 -0.8439 -0.0990
vn 0.3888 -0.6222 -0.6795
vn 0.2664 -0.4263 -0.8645
vn 0.5274 -0.8440 0.0978
vn 0.4912 -0.7861 0.3752
vn 0.3822 -0.6116 0.6927
vn 0.2547 -0.4076 0.8769
vn 0.6099 -0.7004 -0.3708
vn 0.6711 -0.7347 -0.0993
vn 0.4555 -0.5725 -0.6817
vn 0.2847 -0.4123 -0.8654
vn 0.6727 -0.7334 0.0982
vn 0.6107 -0.6964 0.3768
vn 0.4500 -0.5608 0.6949
vn 0.2732 -0.3935 0.8778
vn 0.7117 -0.5938 -0.3753
vn 0.7933 -0.6006 -0.1000
vn 0.5131 -0.5127 -0.6884
vn 0.3000 -0.3955 -0.8681
vn 0.7958 -0.5974 0.0994
vn 0.7137 -0.5874 0.3816
vn 0.5083 -0.4995 0.7015
vn 0.2886 -0.3763 0.8804
vn 0.7951 -0.4704 -0.3827
vn 0.8900 -0.4447 -0.1011
vn 0.5600 -0.4443 -0.6993
vn 0.3117 -0.3766 -0.8724
vn 0.8924 -0.4398 0.1011
vn 0.7972 -0.4616 0.3892
vn 0.5551 -0.4296 0.7123
vn 0.3002 -0.3571 0.8845
vn 0.8575 -0.3325 -0.3927
vn 0.9571 -0.2711 -0.1025
vn 0.5947 -0.3691 -0.7142
vn 0.3193 -0.3564 -0.8781
vn 0.9587 -0.2651 0.1032
vn 0.8586 -0.3215 0.3993
vn 0.5892 -0.3529 0.7268
vn 0.3075 -0.3366 0.8900
vn 0.8959 -0.1826 -0.4050
vn 0.9910 -0.0847 -0.1040
vn 0.6159 -0.2890 -0.7329
vn 0.3225 -0.3358 -0.8850
vn 0.9914 -0.0784 0.1052
vn 0.8953 -0.1704 0.4115
vn 0.6094 -0.2716 0.7449
vn 0.3105 -0.3157 0.8966
vn 0.9076 -0.0242 -0.4192
vn 0.9885 0.1082 -0.1054
vn 0.6225 -0.2059 -0.7551
vn 0.3210 -0.3159 -0.8928
vn 0.9877 0.1140 0.1066
vn 0.9051 -0.0116 0.4250
vn 0.6147 -0.1877 0.7661
vn 0.3087 -0.2956 0.9040
vn 0.8888 0.1376 -0.4372
vn 0.9478 0.3005 -0.1068
vn 0.6149 -0.1198 -0.7795
vn 0.3192 -0.2949 -0.9006
vn 0.9461 0.3045 0.1104
vn 0.8822 0.1505 0.4462
vn 0.6080 -0.0956 0.7882
vn 0.3089 -0.2725 0.9112
vn -0.3062 0.9520 -0.0018
vn -0.0498 0.9988 -0.0015
vn 0.5009 0.8655 -0.0007
vn 0.8269 0.5623 -0.0000
vn -0.8677 -0.4971 -0.0002
vn -0.7260 -0.6877 0.0002
vn -0.5736 -0.8191 0.0003
vn -0.3997 -0.9167 0.0001
vn -0.2119 -0.9773 -0.0003
vn -0.0180 -0.9998 -0.0007
vn 0.1745 -0.9847 -0.0011
vn 0.3592 -0.9333 -0.0014
vn 0.5299 -0.8480 -0.0015
vn 0.6814 -0.7319 -0.0014
vn 0.8085 -0.5885 -0.0011
vn 0.9066 -0.4221 -0.0007
vn 0.9713 -0.2380 -0.0003
vn 0.9991 -0.0426 0.0001
vn 0.9877 0.1564 0.0003
vn 0.9364 0.3509 0.0002
vn 0.8230 0.5680 -0.0000
vn -0.4179 -0.6001 -0.6821
vn -0.7116 -0.7026 0.0004
vn 0.8850 -0.4657 0.0016
vn 0.7217 0.1146 0.6826
vn 0.9434 0.3318 0.0004
vn 0.7192 0.1122 -0.6857
vn -0.4186 -0.5955 0.6857
vn 0.8853 -0.4651 0.0016
vn 0.9432 0.3321 0.0004
vn 0.0275 -0.9996 0.0016
vn -0.7132 -0.7010 0.0004
vn 0.9365 0.3507 0.0002
vn 0.8248 0.5655 -0.0000
vn 0.9878 0.1559 0.0003
vn 0.9991 -0.0433 0.0001
vn 0.9711 -0.2388 -0.0003
vn 0.9062 -0.4228 -0.0007
vn 0.8082 -0.5890 -0.0011
vn 0.6812 -0.7321 -0.0014
vn 0.3594 -0.9332 -0.0014
vn 0.1751 -0.9846 -0.0011
vn -0.0173 -0.9999 -0.0007
vn -0.2111 -0.9775 -0.0003
vn -0.3990 -0.9169 0.0001
vn -0.5732 -0.8194 0.0003
vn -0.7258 -0.6879 0.0002
vn -0.8691 -0.4946 -0.0002
vn 0.4955 0.8686 -0.0007
vn -0.0463 0.9989 -0.0015
vn -0.3017 0.9534 -0.0018
vn -0.7199 0.6941 -0.0018
vn -0.8757 0.4829 -0.0017
vn -0.9974 -0.0719 -0.0011
vn -0.9372 -0.3487 -0.0002
vn -0.8328 -0.5535 -0.0000
vn -0.9880 -0.1542 -0.0003
vn -0.9990 0.0448 -0.0001
vn -0.9708 0.2399 0.0003
vn -0.9059 0.4236 0.0007
vn -0.8078 0.5894 0.0011
vn -0.6809 0.7323 0.0014
vn -0.3597 0.9331 0.0014
vn -0.1757 0.9844 0.0011
vn 0.0164 0.9999 0.0007
vn 0.2099 0.9777 0.0003
vn 0.3976 0.9175 -0.0001
vn 0.5717 0.8205 -0.0003
vn 0.7243 0.6895 -0.0002
vn 0.7901 0.6130 -0.0001
vn -0.7523 -0.6588 0.0001
vn 0.0810 -0.9967 0.0016
vn -0.1017 -0.9948 0.0013
vn 0.8596 -0.5110 0.0018
vn 0.8525 -0.5227 0.0003
vn 0.9178 0.3971 0.0005
vn 0.7240 0.6898 -0.0002
vn 0.5711 0.8209 -0.0003
vn 0.3967 0.9179 -0.0001
vn 0.2089 0.9779 0.0003
vn 0.0154 0.9999 0.0007
vn -0.1764 0.9843 0.0011
vn -0.3601 0.9329 0.0014
vn -0.6806 0.7326 0.0014
vn -0.8074 0.5901 0.0011
vn -0.9054 0.4245 0.0007
vn -0.9705 0.2410 0.0003
vn -0.9990 0.0458 -0.0001
vn -0.9882 -0.1535 -0.0003
vn -0.9374 -0.3483 -0.0002
vn -0.7255 -0.6882 0.0002
vn -0.5726 -0.8199 0.0003
vn -0.3981 -0.9173 0.0001
vn -0.2101 -0.9777 -0.0003
vn -0.0163 -0.9999 -0.0007
vn 0.1759 -0.9844 -0.0011
vn 0.3598 -0.9330 -0.0014
vn 0.6808 -0.7324 -0.0014
vn 0.8077 -0.5896 -0.0011
vn 0.9058 -0.4237 -0.0007
vn 0.9708 -0.2398 -0.0003
vn 0.9990 -0.0443 0.0001
vn 0.9879 0.1552 0.0003
vn 0.9366 0.3505 0.0002
vn 0.9430 0.3327 0.0004
vn 0.0291 -0.9996 0.0016
vn -0.7122 -0.7019 0.0004
vn 0.4984 0.8669 -0.0007
vn 0.8254 0.5645 -0.0000
vn -0.0483 0.9988 -0.0015
vn -0.3044 0.9525 -0.0018
vn -0.8765 0.4814 -0.0017
vn -0.7220 0.6919 -0.0018
vn -0.9977 -0.0674 -0.0011
vn -0.8697 -0.4936 -0.0002
vn -0.7553 -0.6554 0.0001
vn -0.8332 -0.5530 -0.0000
vn 0.0812 -0.9967 0.0016
vn -0.1024 -0.9947 0.0013
vn 0.8854 -0.4648 0.0016
vn 0.8599 -0.5104 0.0018
vn 0.7902 -0.6129 0.0033
vn -0.0000 0.0476 -0.9989
vn 0.7943 0.5932 0.1309
vn 0.7875 0.5869 0.1881
vn 0.7945 0.5934 0.1292
vn 0.7902 -0.6128 0.0002
vn 0.5680 -0.8230 -0.0026
vn 0.5669 -0.8238 -0.0010
vn -0.5713 0.8208 -0.0051
vn -0.5725 0.8199 -0.0067
vn -0.5711 0.8209 -0.0049
vn 0.0370 0.0073 0.9993
vn -0.5712 0.8208 0.0014
vn -0.5700 0.8216 -0.0019
vn -0.5700 0.8216 -0.0018
vn -0.5711 0.8209 0.0013
vn 0.7898 -0.6133 0.0018
vn 0.5659 -0.8245 0.0017
vn 0.5668 -0.8238 0.0045
vn 0.7925 0.5961 -0.1289
vn 0.8001 0.5999 0.0010
vn 0.8001 0.5999 0.0001
vn 0.7925 0.5961 -0.1288
vn 0.8599 -0.5105 0.0018
vn 0.8598 -0.5106 0.0018
vn 0.0288 -0.9996 0.0016
vn 0.0286 -0.9996 0.0016
vn 0.8853 -0.4649 0.0016
vn 0.0811 -0.9967 0.0016
vn -0.1023 -0.9948 0.0013
vn -0.1022 -0.9948 0.0013
vn -0.7544 -0.6564 0.0001
vn -0.7549 -0.6559 0.0001
vn -0.8330 -0.5533 -0.0000
vn -0.9976 -0.0685 -0.0011
vn -0.9977 -0.0680 -0.0011
vn -0.8694 -0.4941 -0.0002
vn -0.8763 0.4818 -0.0017
vn -0.8764 0.4816 -0.0017
vn -0.7214 0.6925 -0.0018
vn -0.7217 0.6922 -0.0018
vn -0.3037 0.9528 -0.0018
vn -0.0477 0.9989 -0.0015
vn -0.0480 0.9988 -0.0015
vn -0.3040 0.9527 -0.0018
vn 0.4976 0.8674 -0.0007
vn 0.4980 0.8672 -0.0007
vn 0.8251 0.5650 -0.0000
vn -0.7124 -0.7018 0.0004
vn -0.7125 -0.7017 0.0004
vn 0.7242 0.6896 -0.0002
vn 0.5716 0.8205 -0.0003
vn 0.5715 0.8206 -0.0003
vn 0.3975 0.9176 -0.0001
vn 0.3974 0.9177 -0.0001
vn 0.2098 0.9778 0.0003
vn 0.2096 0.9778 0.0003
vn 0.0163 0.9999 0.0007
vn 0.0161 0.9999 0.0007
vn -0.1758 0.9844 0.0011
vn -0.1759 0.9844 0.0011
vn -0.3598 0.9330 0.0014
vn -0.6809 0.7324 0.0014
vn -0.6808 0.7324 0.0014
vn -0.8077 0.5895 0.0011
vn -0.8077 0.5896 0.0011
vn -0.9058 0.4237 0.0007
vn -0.9057 0.4238 0.0007
vn -0.9708 0.2401 0.0003
vn -0.9707 0.2402 0.0003
vn -0.9990 0.0450 -0.0001
vn -0.9990 0.0451 -0.0001
vn -0.9881 -0.1541 -0.0003
vn -0.9881 -0.1540 -0.0003
vn -0.9373 -0.3486 -0.0002
vn -0.7257 -0.6880 0.0002
vn -0.5730 -0.8196 0.0003
vn -0.5731 -0.8195 0.0003
vn -0.3988 -0.9171 0.0001
vn -0.3989 -0.9170 0.0001
vn -0.2108 -0.9775 -0.0003
vn -0.2110 -0.9775 -0.0003
vn -0.0170 -0.9999 -0.0007
vn -0.0172 -0.9999 -0.0007
vn 0.1753 -0.9845 -0.0011
vn 0.1752 -0.9845 -0.0011
vn 0.3596 -0.9331 -0.0014
vn 0.3595 -0.9331 -0.0014
vn 0.6811 -0.7322 -0.0014
vn 0.8080 -0.5891 -0.0011
vn 0.8081 -0.5891 -0.0011
vn 0.9061 -0.4230 -0.0007
vn 0.9062 -0.4229 -0.0007
vn 0.9710 -0.2390 -0.0003
vn 0.9710 -0.2389 -0.0003
vn 0.9990 -0.0436 0.0001
vn 0.9991 -0.0435 0.0001
vn 0.9878 0.1557 0.0003
vn 0.9878 0.1558 0.0003
vn 0.9432 0.3322 0.0004
vn 0.9432 0.3323 0.0004
vn 0.7847 0.5910 -0.1869
vn -0.5724 0.8200 0.0030
vn 0.5679 -0.8231 0.0060
vt 0.379555 0.521583
vt 0.379700 0.517707
vt 0.383038 0.518978
vt 0.382753 0.522447
vt 0.379903 0.514411
vt 0.383215 0.516623
vt 0.093916 0.616574
vt 0.098180 0.617889
vt 0.098025 0.623491
vt 0.093414 0.622068
vt 0.102330 0.619424
vt 0.101479 0.624599
vt 0.106430 0.620934
vt 0.105828 0.625647
vt 0.384940 0.522908
vt 0.384728 0.519205
vt 0.006676 0.492466
vt 0.003204 0.492749
vt 0.003344 0.489277
vt 0.006600 0.488648
vt 0.000848 0.492862
vt 0.001787 0.489286
vt 0.290121 0.005753
vt 0.285924 0.006526
vt 0.285071 0.001836
vt 0.289373 0.000903
vt 0.281747 0.007985
vt 0.281849 0.002833
vt 0.277571 0.009921
vt 0.277561 0.004341
vt 0.006870 0.485301
vt 0.003537 0.487091
vt 0.281542 0.620796
vt 0.285751 0.619950
vt 0.286621 0.624650
vt 0.282301 0.625647
vt 0.289933 0.618370
vt 0.289853 0.623566
vt 0.294094 0.616286
vt 0.294137 0.621916
vt 0.355951 0.679024
vt 0.356780 0.675736
vt 0.360080 0.675566
vt 0.359522 0.677709
vt 0.357287 0.671943
vt 0.360750 0.672156
vt 0.363037 0.672380
vt 0.361578 0.675781
vt 0.465291 0.005653
vt 0.465905 0.000903
vt 0.470272 0.001912
vt 0.469410 0.007097
vt 0.000848 0.644299
vt 0.003142 0.644439
vt 0.003335 0.647917
vt 0.001591 0.647932
vt 0.006459 0.644826
vt 0.006824 0.648669
vt 0.007036 0.651932
vt 0.003456 0.650253
vt 0.477891 0.009802
vt 0.473587 0.008554
vt 0.473740 0.002958
vt 0.478372 0.004291
vt 0.710444 0.565276
vt 0.711141 0.719953
vt 0.706170 0.721262
vt 0.705490 0.565229
vt 0.218680 0.473364
vt 0.378675 0.513163
vt 0.379292 0.517031
vt 0.218228 0.477212
vt 0.218003 0.481848
vt 0.095210 0.605061
vt 0.099158 0.607576
vt 0.103243 0.609602
vt 0.107396 0.610862
vt 0.278915 0.021510
vt 0.282879 0.019078
vt 0.286978 0.017107
vt 0.291134 0.015862
vt 0.101073 0.585297
vt 0.104645 0.588456
vt 0.108518 0.591226
vt 0.112512 0.593236
vt 0.284849 0.041287
vt 0.288452 0.038211
vt 0.292331 0.035502
vt 0.296323 0.033506
vt 0.110392 0.567022
vt 0.113497 0.570727
vt 0.116986 0.574163
vt 0.120629 0.576889
vt 0.294212 0.059573
vt 0.297356 0.055947
vt 0.300855 0.052574
vt 0.304495 0.049869
vt 0.122885 0.550978
vt 0.125446 0.555136
vt 0.128419 0.559174
vt 0.131559 0.562561
vt 0.306741 0.075626
vt 0.309343 0.071537
vt 0.312326 0.067564
vt 0.315463 0.064201
vt 0.138101 0.537816
vt 0.140061 0.542327
vt 0.142400 0.546866
vt 0.144898 0.550819
vt 0.321987 0.088793
vt 0.323983 0.084339
vt 0.326331 0.079863
vt 0.328825 0.075937
vt 0.155444 0.528056
vt 0.156765 0.532816
vt 0.158376 0.537729
vt 0.160113 0.542113
vt 0.339357 0.098550
vt 0.340703 0.093838
vt 0.342319 0.088986
vt 0.344052 0.084631
vt 0.174222 0.522068
vt 0.174881 0.526967
vt 0.175699 0.532104
vt 0.176593 0.536754
vt 0.358157 0.104525
vt 0.358827 0.099667
vt 0.359644 0.094590
vt 0.360532 0.089970
vt 0.193670 0.520056
vt 0.193680 0.524961
vt 0.193691 0.530174
vt 0.193700 0.534925
vt 0.377623 0.106513
vt 0.377626 0.101649
vt 0.377629 0.096496
vt 0.377631 0.091776
vt 0.213128 0.521989
vt 0.212488 0.526891
vt 0.211691 0.532031
vt 0.210816 0.536686
vt 0.397092 0.104547
vt 0.396428 0.099689
vt 0.395616 0.094610
vt 0.394733 0.089989
vt 0.231932 0.527900
vt 0.230631 0.532666
vt 0.229040 0.537587
vt 0.227320 0.541979
vt 0.415902 0.098595
vt 0.414561 0.093880
vt 0.412951 0.089025
vt 0.411222 0.084667
vt 0.249321 0.537589
vt 0.247380 0.542111
vt 0.245060 0.546663
vt 0.242578 0.550629
vt 0.433289 0.088858
vt 0.431298 0.084399
vt 0.428956 0.079917
vt 0.426465 0.075986
vt 0.264607 0.550685
vt 0.262064 0.554860
vt 0.259109 0.558916
vt 0.255981 0.562321
vt 0.448565 0.075710
vt 0.445968 0.071612
vt 0.442989 0.067631
vt 0.439853 0.064260
vt 0.277200 0.566677
vt 0.274111 0.570405
vt 0.270634 0.573868
vt 0.266997 0.576619
vt 0.461139 0.059664
vt 0.457996 0.056026
vt 0.454496 0.052642
vt 0.450852 0.049928
vt 0.286654 0.584932
vt 0.283091 0.588127
vt 0.279220 0.590932
vt 0.275219 0.592973
vt 0.470559 0.041354
vt 0.466947 0.038263
vt 0.463055 0.035542
vt 0.459049 0.033540
vt 0.292705 0.604750
vt 0.288762 0.607310
vt 0.284662 0.609378
vt 0.280493 0.610671
vt 0.476545 0.021490
vt 0.472554 0.019045
vt 0.468443 0.017064
vt 0.464272 0.015808
vt 0.200193 0.686821
vt 0.357028 0.676190
vt 0.200418 0.691192
vt 0.355895 0.679807
vt 0.200311 0.694896
vt 0.999539 0.565248
vt 0.999392 0.721296
vt 0.994483 0.719421
vt 0.994598 0.564741
vt 0.710283 0.529658
vt 0.709573 0.372317
vt 0.720037 0.376458
vt 0.720644 0.529922
vt 0.738820 0.383588
vt 0.739318 0.530346
vt 0.757632 0.390140
vt 0.758036 0.530732
vt 0.776482 0.395866
vt 0.776813 0.531063
vt 0.795373 0.400550
vt 0.795653 0.531326
vt 0.814301 0.404017
vt 0.814550 0.531512
vt 0.833256 0.406136
vt 0.833492 0.531612
vt 0.852224 0.406827
vt 0.852458 0.531622
vt 0.871189 0.406064
vt 0.871424 0.531540
vt 0.890136 0.403874
vt 0.890365 0.531369
vt 0.909050 0.400337
vt 0.909262 0.531113
vt 0.927924 0.395581
vt 0.928101 0.530778
vt 0.946752 0.389784
vt 0.946877 0.530377
vt 0.965539 0.383162
vt 0.965593 0.529921
vt 0.984295 0.375961
vt 0.984265 0.529426
vt 0.994743 0.371781
vt 0.994625 0.529123
vt 0.074189 0.001132
vt 0.080520 0.003751
vt 0.077811 0.007190
vt 0.074446 0.009165
vt 0.077345 0.008930
vt 0.075232 0.012916
vt 0.077098 0.016142
vt 0.078860 0.013047
vt 0.078005 0.007068
vt 0.080334 0.009971
vt 0.082733 0.006356
vt 0.081194 0.004168
vt 0.075868 0.426985
vt 0.076563 0.419506
vt 0.079778 0.420958
vt 0.081828 0.424144
vt 0.080052 0.420922
vt 0.082580 0.423551
vt 0.084447 0.421154
vt 0.081612 0.418576
vt 0.079126 0.419493
vt 0.080119 0.415695
vt 0.078886 0.411964
vt 0.077291 0.415639
vt 0.258784 0.006317
vt 0.260597 0.003920
vt 0.263072 0.006567
vt 0.261634 0.008934
vt 0.264021 0.007987
vt 0.263084 0.011947
vt 0.264232 0.015791
vt 0.265768 0.012024
vt 0.263416 0.006459
vt 0.266446 0.008077
vt 0.267098 0.000612
vt 0.261239 0.003444
vt 0.259970 0.421549
vt 0.262341 0.418032
vt 0.264577 0.420893
vt 0.261672 0.423780
vt 0.264844 0.420811
vt 0.262475 0.424322
vt 0.268764 0.426984
vt 0.268422 0.418981
vt 0.265394 0.419114
vt 0.267599 0.415276
vt 0.265704 0.412091
vt 0.263880 0.415107
vt 0.013796 0.187767
vt 0.010678 0.187142
vt 0.008523 0.186343
vt 0.005260 0.184924
vt 0.084980 0.023027
vt 0.083642 0.026240
vt 0.086403 0.020428
vt 0.088923 0.018151
vt 0.085653 0.402056
vt 0.086968 0.405162
vt 0.088339 0.407664
vt 0.090795 0.409907
vt 0.097288 0.038682
vt 0.095998 0.041875
vt 0.098692 0.035892
vt 0.101005 0.033268
vt 0.098093 0.386942
vt 0.099432 0.390028
vt 0.100841 0.392743
vt 0.103139 0.395361
vt 0.109423 0.053402
vt 0.108122 0.056466
vt 0.110901 0.050671
vt 0.113123 0.048124
vt 0.109898 0.372244
vt 0.111295 0.375178
vt 0.112821 0.377781
vt 0.115069 0.380226
vt 0.121487 0.066099
vt 0.120309 0.069010
vt 0.122877 0.063426
vt 0.124839 0.060893
vt 0.121776 0.359572
vt 0.123013 0.362355
vt 0.124415 0.364887
vt 0.126363 0.367306
vt 0.133546 0.076333
vt 0.132593 0.079103
vt 0.134698 0.073723
vt 0.136245 0.071198
vt 0.133881 0.349544
vt 0.134859 0.352204
vt 0.135997 0.354694
vt 0.137516 0.357133
vt 0.145833 0.083723
vt 0.145185 0.086402
vt 0.146634 0.081138
vt 0.147667 0.078585
vt 0.146283 0.342337
vt 0.146945 0.344915
vt 0.147731 0.347385
vt 0.148741 0.349855
vt 0.158382 0.088082
vt 0.158070 0.090699
vt 0.158781 0.085513
vt 0.159265 0.082945
vt 0.158958 0.338094
vt 0.159278 0.340616
vt 0.159671 0.343073
vt 0.160146 0.345557
vt 0.170950 0.089406
vt 0.170965 0.091995
vt 0.170935 0.086828
vt 0.170920 0.084397
vt 0.171640 0.336802
vt 0.171629 0.339299
vt 0.171618 0.341765
vt 0.171607 0.344118
vt 0.183506 0.087936
vt 0.183853 0.090549
vt 0.183073 0.085374
vt 0.182554 0.082816
vt 0.184330 0.338205
vt 0.183983 0.340729
vt 0.183563 0.343185
vt 0.183059 0.345665
vt 0.196005 0.083358
vt 0.196680 0.086043
vt 0.195175 0.080763
vt 0.194104 0.078194
vt 0.196998 0.342625
vt 0.196321 0.345222
vt 0.195514 0.347718
vt 0.194468 0.350220
vt 0.208353 0.075941
vt 0.209305 0.078722
vt 0.207202 0.073319
vt 0.205657 0.070777
vt 0.209539 0.349806
vt 0.208588 0.352504
vt 0.207472 0.355041
vt 0.205967 0.357538
vt 0.220467 0.065743
vt 0.221667 0.068641
vt 0.219061 0.063099
vt 0.217101 0.060608
vt 0.221940 0.359654
vt 0.220766 0.362486
vt 0.219421 0.365076
vt 0.217524 0.367570
vt 0.232258 0.052784
vt 0.233626 0.055823
vt 0.230721 0.050085
vt 0.228444 0.047589
vt 0.234230 0.372018
vt 0.232911 0.374996
vt 0.231454 0.377645
vt 0.229274 0.380157
vt 0.244063 0.037782
vt 0.245371 0.040958
vt 0.242652 0.034985
vt 0.240325 0.032333
vt 0.246472 0.386452
vt 0.245150 0.389561
vt 0.243750 0.392274
vt 0.241467 0.394869
vt 0.256375 0.022472
vt 0.257648 0.025654
vt 0.255016 0.019908
vt 0.252542 0.017649
vt 0.258997 0.401923
vt 0.257613 0.405058
vt 0.256174 0.407589
vt 0.253674 0.409847
vt 0.337557 0.183820
vt 0.334041 0.184575
vt 0.331904 0.185455
vt 0.329048 0.186771
vt 0.013573 0.237970
vt 0.025681 0.236069
vt 0.252529 0.017639
vt 0.240307 0.032319
vt 0.228427 0.047575
vt 0.217087 0.060594
vt 0.205646 0.070763
vt 0.194096 0.078180
vt 0.182550 0.082802
vt 0.170920 0.084383
vt 0.159269 0.082931
vt 0.147674 0.078571
vt 0.136256 0.071184
vt 0.124853 0.060880
vt 0.113139 0.048109
vt 0.101023 0.033254
vt 0.088936 0.018141
vt 0.090808 0.409917
vt 0.103157 0.395376
vt 0.115085 0.380240
vt 0.126377 0.367319
vt 0.137527 0.357146
vt 0.148748 0.349869
vt 0.160149 0.345571
vt 0.171606 0.344132
vt 0.183055 0.345679
vt 0.194461 0.350234
vt 0.205957 0.357552
vt 0.217510 0.367584
vt 0.229258 0.380172
vt 0.241449 0.394883
vt 0.253661 0.409857
vt 0.048982 0.234319
vt 0.071273 0.232719
vt 0.092575 0.231324
vt 0.113043 0.230197
vt 0.132867 0.229371
vt 0.152255 0.228865
vt 0.171433 0.228695
vt 0.190617 0.228763
vt 0.210024 0.229165
vt 0.229879 0.229878
vt 0.250386 0.230882
vt 0.271726 0.232145
vt 0.294047 0.233611
vt 0.317369 0.235231
vt 0.329494 0.237032
vt 0.375545 0.524637
vt 0.217074 0.486581
vt 0.159681 0.683449
vt 0.009971 0.641865
vt 0.160560 0.678945
vt 0.353709 0.668240
vt 0.010820 0.496324
vt 0.169654 0.684724
vt 0.170294 0.680297
vt 0.176600 0.478420
vt 0.176648 0.483269
vt 0.317992 0.223916
vt 0.331013 0.224867
vt 0.294399 0.223132
vt 0.272009 0.222566
vt 0.250610 0.222086
vt 0.230042 0.221705
vt 0.210123 0.221439
vt 0.190651 0.221303
vt 0.171412 0.221309
vt 0.152180 0.221410
vt 0.132724 0.221656
vt 0.112832 0.222037
vt 0.092297 0.222543
vt 0.070932 0.223154
vt 0.048572 0.223852
vt 0.025010 0.224774
vt 0.012022 0.225841
vt 0.332669 0.237474
vt 0.334893 0.238099
vt 0.338225 0.239383
vt 0.004873 0.240426
vt 0.008444 0.239809
vt 0.010644 0.239104
vt 0.984263 0.538111
vt 0.994618 0.538028
vt 0.965596 0.538226
vt 0.946884 0.538333
vt 0.928111 0.538430
vt 0.909274 0.538514
vt 0.890378 0.538585
vt 0.871437 0.538642
vt 0.852472 0.538684
vt 0.833506 0.538713
vt 0.814565 0.538727
vt 0.795668 0.538727
vt 0.776832 0.538714
vt 0.758059 0.538688
vt 0.739346 0.538652
vt 0.720678 0.538607
vt 0.710323 0.538562
vt 0.999723 0.370580
vt 0.999573 0.529314
vt 0.006596 0.649056
vt 0.159345 0.687811
vt 0.158723 0.691388
vt 0.007054 0.652647
vt 0.006954 0.487962
vt 0.176340 0.473836
vt 0.008099 0.484139
vt 0.176398 0.469944
vt 0.705334 0.529299
vt 0.704641 0.370580
vt 0.720781 0.564662
vt 0.721377 0.715528
vt 0.739430 0.563568
vt 0.739919 0.707842
vt 0.758128 0.562558
vt 0.758524 0.700770
vt 0.776888 0.561668
vt 0.777213 0.694577
vt 0.795716 0.560931
vt 0.795991 0.689493
vt 0.814607 0.560373
vt 0.814853 0.685710
vt 0.833546 0.560016
vt 0.833779 0.683369
vt 0.852511 0.559872
vt 0.852742 0.682554
vt 0.871477 0.559945
vt 0.871708 0.683297
vt 0.890417 0.560231
vt 0.890643 0.685568
vt 0.909310 0.560717
vt 0.909519 0.689280
vt 0.928141 0.561384
vt 0.928316 0.694292
vt 0.946905 0.562203
vt 0.947027 0.700416
vt 0.965606 0.563143
vt 0.965659 0.707418
vt 0.984258 0.564167
vt 0.984230 0.715034
vt 0.025716 0.190014
vt 0.048844 0.192382
vt 0.071074 0.194435
vt 0.092366 0.196159
vt 0.112849 0.197509
vt 0.132701 0.198458
vt 0.152126 0.198994
vt 0.171348 0.199102
vt 0.190573 0.198875
vt 0.210008 0.198219
vt 0.229877 0.197145
vt 0.250380 0.195666
vt 0.271695 0.193806
vt 0.293956 0.191618
vt 0.317121 0.189119
vt 0.200119 0.682178
vt 0.207682 0.480646
vt 0.207049 0.485187
vt 0.334140 0.197873
vt 0.330735 0.198845
vt 0.336667 0.197308
vt 0.340703 0.196990
vt 0.006098 0.199166
vt 0.002165 0.198099
vt 0.008644 0.199645
vt 0.012145 0.199850
vt 0.999547 0.556264
vt 0.994605 0.555837
vt 0.190168 0.691151
vt 0.189919 0.695134
vt 0.190073 0.686447
vt 0.207810 0.475850
vt 0.208144 0.471846
vt 0.003240 0.052322
vt 0.002812 0.047344
vt 0.018441 0.042939
vt 0.022125 0.046704
vt 0.022246 0.019469
vt 0.019725 0.012264
vt 0.023914 0.008785
vt 0.027503 0.018486
vt 0.187054 0.470135
vt 0.178529 0.446174
vt 0.189177 0.444803
vt 0.001975 0.016994
vt 0.004391 0.006268
vt 0.005306 0.001266
vt 0.001252 0.036598
vt 0.001252 0.026805
vt 0.022766 0.027896
vt 0.021551 0.036158
vt 0.197616 0.470813
vt 0.199734 0.444860
vt 0.210157 0.446519
vt 0.028030 0.028246
vt 0.026369 0.037697
vt 0.197348 0.474832
vt 0.186857 0.474138
vt 0.197347 0.479643
vt 0.186987 0.478927
vt 0.179830 0.685788
vt 0.179720 0.690554
vt 0.169361 0.689405
vt 0.179291 0.694564
vt 0.168776 0.693292
vt 0.999564 0.538298
vt 0.999556 0.547281
vt 0.994612 0.546932
vt 0.008577 0.226590
vt 0.007871 0.213116
vt 0.011491 0.212839
vt 0.006002 0.226930
vt 0.005198 0.213042
vt 0.001919 0.227059
vt 0.001005 0.212547
vt 0.341138 0.225986
vt 0.337138 0.225103
vt 0.337755 0.211157
vt 0.341961 0.211438
vt 0.334539 0.224848
vt 0.335079 0.211322
vt 0.331467 0.211845
vt 0.196926 0.484199
vt 0.186778 0.483526
vt 0.710404 0.556371
vt 0.710364 0.547467
vt 0.720713 0.547292
vt 0.720747 0.555977
vt 0.739374 0.546957
vt 0.739402 0.555263
vt 0.758082 0.546645
vt 0.758105 0.554601
vt 0.776850 0.546365
vt 0.776869 0.554017
vt 0.795684 0.546129
vt 0.795700 0.553530
vt 0.814579 0.545943
vt 0.814593 0.553158
vt 0.833519 0.545814
vt 0.833533 0.552915
vt 0.852485 0.545747
vt 0.852498 0.552809
vt 0.871451 0.545743
vt 0.871464 0.552844
vt 0.890391 0.545800
vt 0.890404 0.553015
vt 0.909286 0.545915
vt 0.909298 0.553316
vt 0.928121 0.546081
vt 0.928131 0.553732
vt 0.946891 0.546290
vt 0.946898 0.554247
vt 0.965599 0.546532
vt 0.965603 0.554837
vt 0.984262 0.546796
vt 0.984260 0.555482
vt 0.024996 0.201282
vt 0.024715 0.213012
vt 0.048485 0.202836
vt 0.048389 0.213340
vt 0.070821 0.204003
vt 0.070774 0.213579
vt 0.092182 0.204950
vt 0.092160 0.213748
vt 0.112726 0.205680
vt 0.112720 0.213860
vt 0.132633 0.206184
vt 0.132641 0.213922
vt 0.152108 0.206459
vt 0.152126 0.213937
vt 0.171370 0.206501
vt 0.171392 0.213906
vt 0.190636 0.206345
vt 0.190663 0.213826
vt 0.210124 0.205952
vt 0.210162 0.213697
vt 0.230051 0.205325
vt 0.230106 0.213517
vt 0.250618 0.204467
vt 0.250694 0.213278
vt 0.272006 0.203387
vt 0.272110 0.212978
vt 0.294372 0.202088
vt 0.294526 0.212607
vt 0.317889 0.200396
vt 0.318228 0.212139
vt 0.180243 0.681293
vt 0.190247 0.681938
vt 0.220439 0.449601
s 1
usemtl Chest
f 139/177/120 142/178/121 144/179/122 143/180/123
f 142/178/121 146/181/124 147/182/125 144/179/122
f 140/183/126 145/184/127 147/185/128 146/186/129
f 145/184/127 149/187/130 150/188/131 147/185/128
f 141/189/132 148/190/133 150/188/131 149/187/130
f 148/191/134 143/180/123 144/179/122 150/192/135
f 144/179/122 147/182/125 150/192/135
f 151/193/136 154/194/137 156/195/138 155/196/139
f 154/194/137 158/197/140 159/198/141 156/195/138
f 152/199/142 157/200/143 159/201/144 158/202/145
f 157/200/143 161/203/146 162/204/147 159/201/144
f 153/205/148 160/206/149 162/204/147 161/203/146
f 160/207/150 155/196/139 156/195/138 162/208/151
f 156/195/138 159/198/141 162/208/151
f 283/209/152 286/210/153 288/211/154 287/212/155
f 286/210/153 290/213/156 291/214/157 288/211/154
f 284/215/158 289/216/159 291/214/157 290/213/156
f 289/217/160 293/218/161 294/219/162 291/220/163
f 285/221/164 292/222/165 294/219/162 293/218/161
f 292/222/165 287/223/166 288/224/167 294/219/162
f 288/224/167 291/220/163 294/219/162
f 295/225/168 298/226/169 300/227/170 299/228/171
f 298/229/172 302/230/173 303/231/174 300/232/175
f 296/233/176 301/234/177 303/231/174 302/230/173
f 301/234/177 305/235/178 306/236/179 303/231/174
f 297/237/180 304/238/181 306/239/182 305/240/183
f 304/238/181 299/228/171 300/227/170 306/239/182
f 300/232/175 303/231/174 306/236/179
f 521/241/184 140/242/126 146/243/129 555/244/185
f 555/245/186 146/246/124 142/247/121 556/248/187
f 556/248/187 142/247/121 139/177/120 557/249/188
f 140/183/126 164/250/189 166/251/190 145/184/127
f 145/184/127 166/251/190 165/252/191 149/187/130
f 149/187/130 165/252/191 163/253/192 141/189/132
f 168/254/193 153/205/148 161/203/146 170/255/194
f 170/255/194 161/203/146 157/200/143 169/256/195
f 169/256/195 157/200/143 152/199/142 167/257/196
f 164/250/189 172/258/197 174/259/198 166/251/190
f 166/251/190 174/259/198 173/260/199 165/252/191
f 165/252/191 173/260/199 171/261/200 163/253/192
f 176/262/201 168/254/193 170/255/194 178/263/202
f 178/263/202 170/255/194 169/256/195 177/264/203
f 177/264/203 169/256/195 167/257/196 175/265/204
f 172/258/197 180/266/205 182/267/206 174/259/198
f 174/259/198 182/267/206 181/268/207 173/260/199
f 173/260/199 181/268/207 179/269/208 171/261/200
f 184/270/209 176/262/201 178/263/202 186/271/210
f 186/271/210 178/263/202 177/264/203 185/272/211
f 185/272/211 177/264/203 175/265/204 183/273/212
f 180/266/205 188/274/213 190/275/214 182/267/206
f 182/267/206 190/275/214 189/276/215 181/268/207
f 181/268/207 189/276/215 187/277/216 179/269/208
f 192/278/217 184/270/209 186/271/210 194/279/218
f 194/279/218 186/271/210 185/272/211 193/280/219
f 193/280/219 185/272/211 183/273/212 191/281/220
f 188/274/213 196/282/221 198/283/222 190/275/214
f 190/275/214 198/283/222 197/284/223 189/276/215
f 189/276/215 197/284/223 195/285/224 187/277/216
f 200/286/225 192/278/217 194/279/218 202/287/226
f 202/287/226 194/279/218 193/280/219 201/288/227
f 201/288/227 193/280/219 191/281/220 199/289/228
f 196/282/221 204/290/229 206/291/230 198/283/222
f 198/283/222 206/291/230 205/292/231 197/284/223
f 197/284/223 205/292/231 203/293/232 195/285/224
f 208/294/233 200/286/225 202/287/226 210/295/234
f 210/295/234 202/287/226 201/288/227 209/296/235
f 209/296/235 201/288/227 199/289/228 207/297/236
f 204/290/229 212/298/237 214/299/238 206/291/230
f 206/291/230 214/299/238 213/300/239 205/292/231
f 205/292/231 213/300/239 211/301/240 203/293/232
f 216/302/241 208/294/233 210/295/234 218/303/242
f 218/303/242 210/295/234 209/296/235 217/304/243
f 217/304/243 209/296/235 207/297/236 215/305/244
f 212/298/237 220/306/245 222/307/246 214/299/238
f 214/299/238 222/307/246 221/308/247 213/300/239
f 213/300/239 221/308/247 219/309/248 211/301/240
f 224/310/249 216/302/241 218/303/242 226/311/250
f 226/311/250 218/303/242 217/304/243 225/312/251
f 225/312/251 217/304/243 215/305/244 223/313/252
f 220/306/245 228/314/253 230/315/254 222/307/246
f 222/307/246 230/315/254 229/316/255 221/308/247
f 221/308/247 229/316/255 227/317/256 219/309/248
f 232/318/257 224/310/249 226/311/250 234/319/258
f 234/319/258 226/311/250 225/312/251 233/320/259
f 233/320/259 225/312/251 223/313/252 231/321/260
f 228/314/253 236/322/261 238/323/262 230/315/254
f 230/315/254 238/323/262 237/324/263 229/316/255
f 229/316/255 237/324/263 235/325/264 227/317/256
f 240/326/265 232/318/257 234/319/258 242/327/266
f 242/327/266 234/319/258 233/320/259 241/328/267
f 241/328/267 233/320/259 231/321/260 239/329/268
f 236/322/261 244/330/269 246/331/270 238/323/262
f 238/323/262 246/331/270 245/332/271 237/324/263
f 237/324/263 245/332/271 243/333/272 235/325/264
f 248/334/273 240/326/265 242/327/266 250/335/274
f 250/335/274 242/327/266 241/328/267 249/336/275
f 249/336/275 241/328/267 239/329/268 247/337/276
f 244/330/269 252/338/277 254/339/278 246/331/270
f 246/331/270 254/339/278 253/340/279 245/332/271
f 245/332/271 253/340/279 251/341/280 243/333/272
f 256/342/281 248/334/273 250/335/274 258/343/282
f 258/343/282 250/335/274 249/336/275 257/344/283
f 257/344/283 249/336/275 247/337/276 255/345/284
f 252/338/277 260/346/285 262/347/286 254/339/278
f 254/339/278 262/347/286 261/348/287 253/340/279
f 253/340/279 261/348/287 259/349/288 251/341/280
f 264/350/289 256/342/281 258/343/282 266/351/290
f 266/351/290 258/343/282 257/344/283 265/352/291
f 265/352/291 257/344/283 255/345/284 263/353/292
f 260/346/285 268/354/293 270/355/294 262/347/286
f 262/347/286 270/355/294 269/356/295 261/348/287
f 261/348/287 269/356/295 267/357/296 259/349/288
f 272/358/297 264/350/289 266/351/290 274/359/298
f 274/359/298 266/351/290 265/352/291 273/360/299
f 273/360/299 265/352/291 263/353/292 271/361/300
f 268/354/293 276/362/301 278/363/302 270/355/294
f 270/355/294 278/363/302 277/364/303 269/356/295
f 269/356/295 277/364/303 275/365/304 267/357/296
f 280/366/305 272/358/297 274/359/298 282/367/306
f 282/367/306 274/359/298 273/360/299 281/368/307
f 281/368/307 273/360/299 271/361/300 279/369/308
f 276/362/301 284/215/158 290/213/156 278/363/302
f 278/363/302 290/213/156 286/210/153 277/364/303
f 277/364/303 286/210/153 283/209/152 275/365/304
f 297/237/180 280/366/305 282/367/306 304/238/181
f 304/238/181 282/367/306 281/368/307 299/228/171
f 299/228/171 281/368/307 279/369/308 295/225/168
f 522/370/309 285/221/164 293/371/161 558/372/310
f 558/372/310 293/371/161 289/373/160 559/374/311
f 559/375/312 289/376/159 284/377/158 560/378/313
f 141/189/132 283/209/152 287/212/155 148/190/133
f 148/191/134 287/223/166 292/222/165 143/180/123
f 143/180/123 292/222/165 285/221/164 139/177/120
f 151/193/136 296/233/176 302/230/173 154/194/137
f 154/194/137 302/230/173 298/229/172 158/197/140
f 158/202/145 298/226/169 295/225/168 152/199/142
f 475/379/314 153/380/148 168/381/193 483/382/315
f 141/189/132 163/253/192 171/261/200 179/269/208 187/277/216 195/285/224 203/293/232 211/301/240 219/309/248 227/317/256 235/325/264 243/333/272 251/341/280 259/349/288 267/357/296 275/365/304 283/209/152
f 167/257/196 152/199/142 295/225/168 279/369/308 271/361/300 263/353/292 255/345/284 247/337/276 239/329/268 231/321/260 223/313/252 215/305/244 207/297/236 199/289/228 191/281/220 183/273/212 175/265/204
f 483/382/315 168/381/193 176/383/201 484/384/316
f 484/384/316 176/383/201 184/385/209 485/386/317
f 485/386/317 184/385/209 192/387/217 486/388/318
f 486/388/318 192/387/217 200/389/225 487/390/319
f 487/390/319 200/389/225 208/391/233 488/392/320
f 488/392/320 208/391/233 216/393/241 489/394/321
f 489/394/321 216/393/241 224/395/249 490/396/322
f 490/396/322 224/395/249 232/397/257 491/398/323
f 491/398/323 232/397/257 240/399/265 492/400/324
f 492/400/324 240/399/265 248/401/273 493/402/325
f 493/402/325 248/401/273 256/403/281 494/404/326
f 494/404/326 256/403/281 264/405/289 495/406/327
f 495/406/327 264/405/289 272/407/297 496/408/328
f 496/408/328 272/407/297 280/409/305 497/410/329
f 497/410/329 280/409/305 297/411/180 482/412/330
f 307/413/331 311/414/332 312/415/333 310/416/334
f 310/416/334 312/415/333 315/417/335 314/418/336
f 308/419/337 314/418/336 315/417/335 313/420/338
f 313/420/338 315/417/335 318/421/339 317/422/340
f 309/423/341 317/422/340 318/421/339 316/424/342
f 316/424/342 318/421/339 312/415/333 311/414/332
f 312/415/333 318/421/339 315/417/335
f 319/425/343 323/426/344 324/427/345 322/428/346
f 322/428/346 324/427/345 327/429/347 326/430/348
f 320/431/349 326/430/348 327/429/347 325/432/350
f 325/432/350 327/429/347 330/433/351 329/434/352
f 321/435/353 329/434/352 330/433/351 328/436/354
f 328/436/354 330/433/351 324/427/345 323/426/344
f 324/427/345 330/433/351 327/429/347
f 451/437/355 455/438/356 456/439/357 454/440/358
f 454/440/358 456/439/357 459/441/359 458/442/360
f 452/443/361 458/442/360 459/441/359 457/444/362
f 457/444/362 459/441/359 462/445/363 461/446/364
f 453/447/365 461/446/364 462/445/363 460/448/366
f 460/448/366 462/445/363 456/439/357 455/438/356
f 456/439/357 462/445/363 459/441/359
f 463/449/367 467/450/368 468/451/369 466/452/370
f 466/452/370 468/451/369 471/453/371 470/454/372
f 464/455/373 470/454/372 471/453/371 469/456/374
f 469/456/374 471/453/371 474/457/375 473/458/376
f 465/459/377 473/458/376 474/457/375 472/460/378
f 472/460/378 474/457/375 468/451/369 467/450/368
f 468/451/369 474/457/375 471/453/371
f 538/461/379 561/462/380 314/418/336 308/419/337
f 561/462/380 562/463/381 310/416/334 314/418/336
f 562/463/381 563/464/382 307/413/331 310/416/334
f 308/419/337 313/420/338 334/465/383 332/466/384
f 313/420/338 317/422/340 333/467/385 334/465/383
f 317/422/340 309/423/341 331/468/386 333/467/385
f 336/469/387 338/470/388 329/434/352 321/435/353
f 338/470/388 337/471/389 325/432/350 329/434/352
f 337/471/389 335/472/390 320/431/349 325/432/350
f 332/466/384 334/465/383 342/473/391 340/474/392
f 334/465/383 333/467/385 341/475/393 342/473/391
f 333/467/385 331/468/386 339/476/394 341/475/393
f 344/477/395 346/478/396 338/470/388 336/469/387
f 346/478/396 345/479/397 337/471/389 338/470/388
f 345/479/397 343/480/398 335/472/390 337/471/389
f 340/474/392 342/473/391 350/481/399 348/482/400
f 342/473/391 341/475/393 349/483/401 350/481/399
f 341/475/393 339/476/394 347/484/402 349/483/401
f 352/485/403 354/486/404 346/478/396 344/477/395
f 354/486/404 353/487/405 345/479/397 346/478/396
f 353/487/405 351/488/406 343/480/398 345/479/397
f 348/482/400 350/481/399 358/489/407 356/490/408
f 350/481/399 349/483/401 357/491/409 358/489/407
f 349/483/401 347/484/402 355/492/410 357/491/409
f 360/493/411 362/494/412 354/486/404 352/485/403
f 362/494/412 361/495/413 353/487/405 354/486/404
f 361/495/413 359/496/414 351/488/406 353/487/405
f 356/490/408 358/489/407 366/497/415 364/498/416
f 358/489/407 357/491/409 365/499/417 366/497/415
f 357/491/409 355/492/410 363/500/418 365/499/417
f 368/501/419 370/502/420 362/494/412 360/493/411
f 370/502/420 369/503/421 361/495/413 362/494/412
f 369/503/421 367/504/422 359/496/414 361/495/413
f 364/498/416 366/497/415 374/505/423 372/506/424
f 366/497/415 365/499/417 373/507/425 374/505/423
f 365/499/417 363/500/418 371/508/426 373/507/425
f 376/509/427 378/510/428 370/502/420 368/501/419
f 378/510/428 377/511/429 369/503/421 370/502/420
f 377/511/429 375/512/430 367/504/422 369/503/421
f 372/506/424 374/505/423 382/513/431 380/514/432
f 374/505/423 373/507/425 381/515/433 382/513/431
f 373/507/425 371/508/426 379/516/434 381/515/433
f 384/517/435 386/518/436 378/510/428 376/509/427
f 386/518/436 385/519/437 377/511/429 378/510/428
f 385/519/437 383/520/438 375/512/430 377/511/429
f 380/514/432 382/513/431 390/521/439 388/522/440
f 382/513/431 381/515/433 389/523/441 390/521/439
f 381/515/433 379/516/434 387/524/442 389/523/441
f 392/525/443 394/526/444 386/518/436 384/517/435
f 394/526/444 393/527/445 385/519/437 386/518/436
f 393/527/445 391/528/446 383/520/438 385/519/437
f 388/522/440 390/521/439 398/529/447 396/530/448
f 390/521/439 389/523/441 397/531/449 398/529/447
f 389/523/441 387/524/442 395/532/450 397/531/449
f 400/533/451 402/534/452 394/526/444 392/525/443
f 402/534/452 401/535/453 393/527/445 394/526/444
f 401/535/453 399/536/454 391/528/446 393/527/445
f 396/530/448 398/529/447 406/537/455 404/538/456
f 398/529/447 397/531/449 405/539/457 406/537/455
f 397/531/449 395/532/450 403/540/458 405/539/457
f 408/541/459 410/542/460 402/534/452 400/533/451
f 410/542/460 409/543/461 401/535/453 402/534/452
f 409/543/461 407/544/462 399/536/454 401/535/453
f 404/538/456 406/537/455 414/545/463 412/546/464
f 406/537/455 405/539/457 413/547/465 414/545/463
f 405/539/457 403/540/458 411/548/466 413/547/465
f 416/549/467 418/550/468 410/542/460 408/541/459
f 418/550/468 417/551/469 409/543/461 410/542/460
f 417/551/469 415/552/470 407/544/462 409/543/461
f 412/546/464 414/545/463 422/553/471 420/554/472
f 414/545/463 413/547/465 421/555/473 422/553/471
f 413/547/465 411/548/466 419/556/474 421/555/473
f 424/557/475 426/558/476 418/550/468 416/549/467
f 426/558/476 425/559/477 417/551/469 418/550/468
f 425/559/477 423/560/478 415/552/470 417/551/469
f 420/554/472 422/553/471 430/561/479 428/562/480
f 422/553/471 421/555/473 429/563/481 430/561/479
f 421/555/473 419/556/474 427/564/482 429/563/481
f 432/565/483 434/566/484 426/558/476 424/557/475
f 434/566/484 433/567/485 425/559/477 426/558/476
f 433/567/485 431/568/486 423/560/478 425/559/477
f 428/562/480 430/561/479 438/569/487 436/570/488
f 430/561/479 429/563/481 437/571/489 438/569/487
f 429/563/481 427/564/482 435/572/490 437/571/489
f 440/573/491 442/574/492 434/566/484 432/565/483
f 442/574/492 441/575/493 433/567/485 434/566/484
f 441/575/493 439/576/494 431/568/486 433/567/485
f 436/570/488 438/569/487 446/577/495 444/578/496
f 438/569/487 437/571/489 445/579/497 446/577/495
f 437/571/489 435/572/490 443/580/498 445/579/497
f 448/581/499 450/582/500 442/574/492 440/573/491
f 450/582/500 449/583/501 441/575/493 442/574/492
f 449/583/501 447/584/502 439/576/494 441/575/493
f 444/578/496 446/577/495 458/442/360 452/443/361
f 446/577/495 445/579/497 454/440/358 458/442/360
f 445/579/497 443/580/498 451/437/355 454/440/358
f 465/459/377 472/460/378 450/582/500 448/581/499
f 472/460/378 467/450/368 449/583/501 450/582/500
f 467/450/368 463/449/367 447/584/502 449/583/501
f 539/585/503 564/586/504 461/446/364 453/447/365
f 564/586/504 565/587/505 457/444/362 461/446/364
f 565/587/505 566/588/506 452/443/361 457/444/362
f 309/423/341 316/424/342 455/438/356 451/437/355
f 316/424/342 311/414/332 460/448/366 455/438/356
f 311/414/332 307/413/331 453/447/365 460/448/366
f 319/425/343 322/428/346 470/454/372 464/455/373
f 322/428/346 326/430/348 466/452/370 470/454/372
f 326/430/348 320/431/349 463/449/367 466/452/370
f 498/589/507 506/590/508 336/469/387 321/435/353
f 309/423/341 451/437/355 443/591/498 435/592/490 427/593/482 419/594/474 411/595/466 403/596/458 395/597/450 387/598/442 379/599/434 371/600/426 363/601/418 355/602/410 347/603/402 339/604/394 331/605/386
f 335/606/390 343/607/398 351/608/406 359/609/414 367/610/422 375/611/430 383/612/438 391/613/446 399/614/454 407/615/462 415/616/470 423/617/478 431/618/486 439/619/494 447/620/502 463/449/367 320/431/349
f 506/590/508 507/621/509 344/477/395 336/469/387
f 507/621/509 508/622/510 352/485/403 344/477/395
f 508/622/510 509/623/511 360/493/411 352/485/403
f 509/623/511 510/624/512 368/501/419 360/493/411
f 510/624/512 511/625/513 376/509/427 368/501/419
f 511/625/513 512/626/514 384/517/435 376/509/427
f 512/626/514 513/627/515 392/525/443 384/517/435
f 513/627/515 514/628/516 400/533/451 392/525/443
f 514/628/516 515/629/517 408/541/459 400/533/451
f 515/629/517 516/630/518 416/549/467 408/541/459
f 516/630/518 517/631/519 424/557/475 416/549/467
f 517/631/519 518/632/520 432/565/483 424/557/475
f 518/632/520 519/633/521 440/573/491 432/565/483
f 519/633/521 520/634/522 448/581/499 440/573/491
f 520/634/522 505/635/523 465/459/377 448/581/499
f 557/249/188 139/177/120 307/636/524 563/637/525
f 479/638/526 296/233/176 464/639/527 502/640/528
f 139/177/120 285/221/164 453/641/529 307/636/524
f 296/233/176 151/193/136 319/642/530 464/639/527
f 633/643/531 479/638/526 502/640/528 650/644/532
f 151/193/136 478/645/533 501/646/534 319/642/530
f 665/647/535 630/648/536 505/635/523 520/634/522
f 664/649/537 665/647/535 520/634/522 519/633/521
f 663/650/538 664/649/537 519/633/521 518/632/520
f 662/651/539 663/650/538 518/632/520 517/631/519
f 661/652/540 662/651/539 517/631/519 516/630/518
f 660/653/541 661/652/540 516/630/518 515/629/517
f 659/654/542 660/653/541 515/629/517 514/628/516
f 658/655/515 659/654/542 514/628/516 513/627/515
f 657/656/543 658/655/515 513/627/515 512/626/514
f 656/657/544 657/656/543 512/626/514 511/625/513
f 655/658/545 656/657/544 511/625/513 510/624/512
f 654/659/546 655/658/545 510/624/512 509/623/511
f 653/660/547 654/659/546 509/623/511 508/622/510
f 652/661/548 653/660/547 508/622/510 507/621/509
f 651/662/549 652/661/548 507/621/509 506/590/508
f 649/663/550 651/662/549 506/590/508 498/589/507
f 473/458/376 465/459/377 505/635/523 504/664/551
f 469/456/374 473/458/376 504/664/551 503/665/552
f 464/455/373 469/456/374 503/665/552 502/666/553
f 323/426/344 319/425/343 501/667/554 500/668/555
f 328/436/354 323/426/344 500/668/555 499/669/556
f 321/435/353 328/436/354 499/669/556 498/589/507
f 648/670/557 497/410/329 482/412/330 624/671/558
f 647/672/559 496/408/328 497/410/329 648/670/557
f 646/673/560 495/406/327 496/408/328 647/672/559
f 645/674/561 494/404/326 495/406/327 646/673/560
f 644/675/562 493/402/325 494/404/326 645/674/561
f 643/676/563 492/400/324 493/402/325 644/675/562
f 642/677/564 491/398/323 492/400/324 643/676/563
f 641/678/322 490/396/322 491/398/323 642/677/564
f 640/679/565 489/394/321 490/396/322 641/678/322
f 639/680/566 488/392/320 489/394/321 640/679/565
f 638/681/567 487/390/319 488/392/320 639/680/566
f 637/682/568 486/388/318 487/390/319 638/681/567
f 636/683/569 485/386/317 486/388/318 637/682/568
f 635/684/570 484/384/316 485/386/317 636/683/569
f 634/685/571 483/382/315 484/384/316 635/684/570
f 632/686/572 475/379/314 483/382/315 634/685/571
f 305/687/183 481/688/573 482/412/330 297/411/180
f 301/689/177 480/690/574 481/691/575 305/692/178
f 296/233/176 479/638/526 480/690/574 301/689/177
f 155/693/139 477/694/576 478/645/533 151/193/136
f 160/695/150 476/696/577 477/694/576 155/693/139
f 153/380/148 475/379/314 476/697/578 160/698/149
f 140/242/126 521/241/184 523/699/579 164/700/189
f 164/700/189 523/699/579 524/701/580 172/702/197
f 172/702/197 524/701/580 525/703/581 180/704/205
f 180/704/205 525/703/581 526/705/582 188/706/213
f 188/706/213 526/705/582 527/707/583 196/708/221
f 196/708/221 527/707/583 528/709/584 204/710/229
f 204/710/229 528/709/584 529/711/585 212/712/237
f 212/712/237 529/711/585 530/713/322 220/714/245
f 220/714/245 530/713/322 531/715/586 228/716/253
f 228/716/253 531/715/586 532/717/587 236/718/261
f 236/718/261 532/717/587 533/719/588 244/720/269
f 244/720/269 533/719/588 534/721/589 252/722/277
f 252/722/277 534/721/589 535/723/590 260/724/285
f 260/724/285 535/723/590 536/725/591 268/726/293
f 268/726/293 536/725/591 537/727/592 276/728/301
f 276/728/301 537/727/592 560/378/313 284/377/158
f 308/419/337 332/466/384 540/729/593 538/461/379
f 332/466/384 340/474/392 541/730/594 540/729/593
f 340/474/392 348/482/400 542/731/595 541/730/594
f 348/482/400 356/490/408 543/732/596 542/731/595
f 356/490/408 364/498/416 544/733/597 543/732/596
f 364/498/416 372/506/424 545/734/598 544/733/597
f 372/506/424 380/514/432 546/735/599 545/734/598
f 380/514/432 388/522/440 547/736/515 546/735/599
f 388/522/440 396/530/448 548/737/600 547/736/515
f 396/530/448 404/538/456 549/738/601 548/737/600
f 404/538/456 412/546/464 550/739/602 549/738/601
f 412/546/464 420/554/472 551/740/603 550/739/602
f 420/554/472 428/562/480 552/741/604 551/740/603
f 428/562/480 436/570/488 553/742/605 552/741/604
f 436/570/488 444/578/496 554/743/606 553/742/605
f 444/578/496 452/443/361 566/588/506 554/743/606
f 285/221/164 522/370/309 539/744/607 453/641/529
f 704/745/608 557/249/188 563/637/525 710/746/609
f 712/747/610 713/748/611 566/588/506 565/587/505
f 711/749/612 712/747/610 565/587/505 564/586/504
f 685/750/613 711/749/612 564/586/504 539/585/503
f 709/751/614 710/752/615 563/464/382 562/463/381
f 708/753/616 709/751/614 562/463/381 561/462/380
f 684/754/617 708/753/616 561/462/380 538/461/379
f 706/755/618 559/375/312 560/378/313 707/756/619
f 705/757/620 558/372/310 559/374/311 706/758/621
f 668/759/622 522/370/309 558/372/310 705/757/620
f 703/760/623 556/248/187 557/249/188 704/745/608
f 702/761/624 555/245/186 556/248/187 703/760/623
f 476/762/625 475/763/625 569/764/625 568/765/625
f 701/766/626 570/767/627 567/768/627 714/769/628
f 619/770/629 476/696/577 568/771/630 631/772/631
f 667/773/632 521/774/633 570/767/633 701/766/634
f 521/774/635 555/775/635 567/768/635 570/767/635
f 632/776/636 583/777/637 618/778/638 666/779/639
f 702/761/624 571/780/640 617/781/641 714/782/642
f 666/779/643 618/778/644 617/783/645 631/784/646
f 619/770/629 571/780/640 572/785/647 620/786/648
f 620/786/648 572/785/647 573/787/649 621/788/650
f 633/643/531 584/789/651 574/790/620 622/791/652
f 622/791/652 574/790/620 575/792/653 623/793/654
f 623/794/655 575/795/656 576/796/657 624/671/558
f 649/663/550 625/797/658 577/798/659 600/799/660
f 625/797/658 626/800/661 578/801/662 577/798/659
f 626/800/661 627/802/663 579/803/664 578/801/662
f 650/804/665 628/805/666 580/806/667 601/807/668
f 628/805/666 629/808/669 581/809/670 580/806/667
f 629/808/669 630/648/536 582/810/671 581/809/670
f 621/788/650 573/787/649 579/811/672 627/812/673
f 667/813/572 583/814/572 585/815/674 669/816/674
f 669/816/674 585/815/674 586/817/675 670/818/676
f 670/818/676 586/817/675 587/819/677 671/820/678
f 671/820/678 587/819/677 588/821/679 672/822/680
f 672/822/680 588/821/679 589/823/681 673/824/682
f 673/824/682 589/823/681 590/825/683 674/826/684
f 674/826/684 590/825/683 591/827/685 675/828/685
f 675/828/685 591/827/685 592/829/322 676/830/322
f 676/830/322 592/829/322 593/831/686 677/832/687
f 677/832/687 593/831/686 594/833/688 678/834/689
f 678/834/689 594/833/688 595/835/690 679/836/691
f 679/836/691 595/835/690 596/837/692 680/838/693
f 680/838/693 596/837/692 597/839/694 681/840/695
f 681/840/695 597/839/694 598/841/696 682/842/697
f 682/842/697 598/841/696 599/843/698 683/844/698
f 683/844/698 599/843/698 576/796/657 707/756/619
f 684/754/617 686/845/699 602/846/699 600/799/660
f 686/845/699 687/847/700 603/848/701 602/846/699
f 687/847/700 688/849/702 604/850/703 603/848/701
f 688/849/702 689/851/704 605/852/705 604/850/703
f 689/851/704 690/853/706 606/854/707 605/852/705
f 690/853/706 691/855/708 607/856/709 606/854/707
f 691/855/708 692/857/710 608/858/711 607/856/709
f 692/857/710 693/859/515 609/860/515 608/858/711
f 693/859/515 694/861/712 610/862/712 609/860/515
f 694/861/712 695/863/713 611/864/714 610/862/712
f 695/863/713 696/865/715 612/866/716 611/864/714
f 696/865/715 697/867/717 613/868/718 612/866/716
f 697/867/717 698/869/719 614/870/720 613/868/718
f 698/869/719 699/871/721 615/872/722 614/870/720
f 699/871/721 700/873/535 616/874/535 615/872/722
f 700/873/535 713/748/611 582/810/671 616/874/535
f 668/759/622 584/789/651 601/875/723 685/876/724
f 478/645/533 621/788/650 627/812/673 501/646/534
f 504/664/551 505/635/523 630/648/536 629/808/669
f 503/665/552 504/664/551 629/808/669 628/805/666
f 502/666/553 503/665/552 628/805/666 650/804/665
f 500/668/555 501/667/554 627/802/663 626/800/661
f 499/669/556 500/668/555 626/800/661 625/797/658
f 498/589/507 499/669/556 625/797/658 649/663/550
f 481/688/573 623/794/655 624/671/558 482/412/330
f 480/690/574 622/791/652 623/793/654 481/691/575
f 479/638/526 633/643/531 622/791/652 480/690/574
f 477/694/576 620/786/648 621/788/650 478/645/533
f 476/696/577 619/770/629 620/786/648 477/694/576
f 569/764/725 666/779/643 631/784/646 568/765/725
f 475/763/726 632/776/636 666/779/639 569/764/726
f 571/780/640 619/770/629 631/772/631 617/781/641
f 583/814/572 632/686/572 634/685/571 585/815/674
f 585/815/674 634/685/571 635/684/570 586/817/675
f 586/817/675 635/684/570 636/683/569 587/819/677
f 587/819/677 636/683/569 637/682/568 588/821/679
f 588/821/679 637/682/568 638/681/567 589/823/681
f 589/823/681 638/681/567 639/680/566 590/825/683
f 590/825/683 639/680/566 640/679/565 591/827/685
f 591/827/685 640/679/565 641/678/322 592/829/322
f 592/829/322 641/678/322 642/677/564 593/831/686
f 593/831/686 642/677/564 643/676/563 594/833/688
f 594/833/688 643/676/563 644/675/562 595/835/690
f 595/835/690 644/675/562 645/674/561 596/837/692
f 596/837/692 645/674/561 646/673/560 597/839/694
f 597/839/694 646/673/560 647/672/559 598/841/696
f 598/841/696 647/672/559 648/670/557 599/843/698
f 599/843/698 648/670/557 624/671/558 576/796/657
f 600/799/660 602/846/699 651/662/549 649/663/550
f 602/846/699 603/848/701 652/661/548 651/662/549
f 603/848/701 604/850/703 653/660/547 652/661/548
f 604/850/703 605/852/705 654/659/546 653/660/547
f 605/852/705 606/854/707 655/658/545 654/659/546
f 606/854/707 607/856/709 656/657/544 655/658/545
f 607/856/709 608/858/711 657/656/543 656/657/544
f 608/858/711 609/860/515 658/655/515 657/656/543
f 609/860/515 610/862/712 659/654/542 658/655/515
f 610/862/712 611/864/714 660/653/541 659/654/542
f 611/864/714 612/866/716 661/652/540 660/653/541
f 612/866/716 613/868/718 662/651/539 661/652/540
f 613/868/718 614/870/720 663/650/538 662/651/539
f 614/870/720 615/872/722 664/649/537 663/650/538
f 615/872/722 616/874/535 665/647/535 664/649/537
f 616/874/535 582/810/671 630/648/536 665/647/535
f 584/789/651 633/643/531 650/644/532 601/875/723
f 522/370/309 668/759/622 685/876/724 539/744/607
f 554/743/606 566/588/506 713/748/611 700/873/535
f 553/742/605 554/743/606 700/873/535 699/871/721
f 552/741/604 553/742/605 699/871/721 698/869/719
f 551/740/603 552/741/604 698/869/719 697/867/717
f 550/739/602 551/740/603 697/867/717 696/865/715
f 549/738/601 550/739/602 696/865/715 695/863/713
f 548/737/600 549/738/601 695/863/713 694/861/712
f 547/736/515 548/737/600 694/861/712 693/859/515
f 546/735/599 547/736/515 693/859/515 692/857/710
f 545/734/598 546/735/599 692/857/710 691/855/708
f 544/733/597 545/734/598 691/855/708 690/853/706
f 543/732/596 544/733/597 690/853/706 689/851/704
f 542/731/595 543/732/596 689/851/704 688/849/702
f 541/730/594 542/731/595 688/849/702 687/847/700
f 540/729/593 541/730/594 687/847/700 686/845/699
f 538/461/379 540/729/593 686/845/699 684/754/617
f 537/727/592 683/844/698 707/756/619 560/378/313
f 536/725/591 682/842/697 683/844/698 537/727/592
f 535/723/590 681/840/695 682/842/697 536/725/591
f 534/721/589 680/838/693 681/840/695 535/723/590
f 533/719/588 679/836/691 680/838/693 534/721/589
f 532/717/587 678/834/689 679/836/691 533/719/588
f 531/715/586 677/832/687 678/834/689 532/717/587
f 530/713/322 676/830/322 677/832/687 531/715/586
f 529/711/585 675/828/685 676/830/322 530/713/322
f 528/709/584 674/826/684 675/828/685 529/711/585
f 527/707/583 673/824/682 674/826/684 528/709/584
f 526/705/582 672/822/680 673/824/682 527/707/583
f 525/703/581 671/820/678 672/822/680 526/705/582
f 524/701/580 670/818/676 671/820/678 525/703/581
f 523/699/579 669/816/674 670/818/676 524/701/580
f 521/241/184 667/813/572 669/816/674 523/699/579
f 555/245/186 702/761/624 714/782/642 567/877/727
f 583/777/637 667/773/632 701/766/634 618/778/638
f 618/778/644 701/766/626 714/769/628 617/783/645
f 571/780/640 702/761/624 703/760/623 572/785/647
f 572/785/647 703/760/623 704/745/608 573/787/649
f 584/789/651 668/759/622 705/757/620 574/790/620
f 574/790/620 705/757/620 706/758/621 575/792/653
f 575/795/656 706/755/618 707/756/619 576/796/657
f 600/799/660 577/798/659 708/753/616 684/754/617
f 577/798/659 578/801/662 709/751/614 708/753/616
f 578/801/662 579/803/664 710/752/615 709/751/614
f 601/807/668 580/806/667 711/749/612 685/750/613
f 580/806/667 581/809/670 712/747/610 711/749/612
f 581/809/670 582/810/671 713/748/611 712/747/610
f 573/787/649 704/745/608 710/746/609 579/811/672
